<?xml version="1.0" standalone="no"?>
<!DOCTYPE svg PUBLIC "-//W3C//DTD SVG 1.1//EN" "http://www.w3.org/Graphics/SVG/1.1/DTD/svg11.dtd">
<svg xmlns="http://www.w3.org/2000/svg">
<metadata>Copyright (C) 2019 by original authors @ fontello.com</metadata>
<defs>
<font id="fontello" horiz-adv-x="1000" >
<font-face font-family="fontello" font-weight="400" font-stretch="normal" units-per-em="1000" ascent="850" descent="-150" />
<missing-glyph horiz-adv-x="1000" />
<glyph glyph-name="marker" unicode="&#xe800;" d="M389 674c-118 0-214-91-214-203 0-111 96-202 214-202 118 0 213 91 213 202 0 112-95 203-213 203z m0 176c214 0 389-166 389-370 0-117-105-292-167-386-40-62-84-121-123-166-62-72-83-78-99-78-16 0-38 6-100 78-39 45-83 104-123 166-62 94-166 269-166 386 0 204 175 370 389 370z m0-504c-73 0-132 56-132 125 0 70 59 126 132 126 73 0 132-56 132-126 0-69-59-125-132-125z m163-187c85 131 134 244 134 310 0 155-133 282-297 282-164 0-297-127-297-282 0-66 48-179 133-310 74-114 139-188 164-207 24 20 90 95 163 207z" horiz-adv-x="778" />

<glyph glyph-name="users" unicode="&#xe801;" d="M860 533q0-108-77-184t-184-76-184 76-76 184 76 183 184 77 184-77 77-183z m286-183q0-54-38-92t-93-38-92 38-38 92 38 92 92 38 93-38 38-92z m-131-161q80 0 131-34t52-79q0-22-53-40t-130-17q-42 0-82 6 0-2 0-7t1-7q0-41-96-72t-239-32q-150 0-242 32t-92 72q0 3 1 8t0 7q-50-7-83-7-82 0-132 17t-51 40q0 45 50 79t133 34q98 0 151-50 99 81 265 81t265-81q52 50 151 50z m-702 161q0-54-38-92t-92-38-93 38-37 92 37 92 93 38q53 0 91-38t39-92z" horiz-adv-x="1198" />

<glyph glyph-name="ic_chat_group_1" unicode="&#xe802;" d="M276 241c0 31 7 60 18 87-22 13-47 20-74 20-83 0-150-67-150-150 0-48 23-91 58-119-75-35-128-111-128-200v-29h197v28c0 61 19 120 53 171 18 26 40 49 64 68-24 36-38 79-38 124z m596-162c35 28 58 71 58 119 0 83-67 150-150 150-27 0-52-7-74-20 11-27 18-56 18-87 0-45-14-88-38-124 24-19 46-42 64-68 34-51 53-110 53-171v-28h197v29c0 89-53 165-128 200z m-280 25c44 30 73 80 73 137 0 91-74 165-165 165-91 0-165-74-165-165 0-57 29-107 73-137-89-36-152-124-152-226v-28h488v28c0 102-63 190-152 226z m-89 746h-461v-333h172l147-79-1 79h143v333z m-135-193h-192v59h192v-59z m201 68v-284h117l-1-69 128 69h145v284h-389z m273-169h-157v58h0 157v-58z" horiz-adv-x="1000" />

<glyph glyph-name="menu" unicode="&#xe803;" d="M68 62q0-30 21-51t51-21h793q30 0 51 21t21 51-21 51-51 21h-793q-29 0-51-21t-21-51z m0 288q0-30 21-51t51-21h793q30 0 51 21t21 51-21 51-51 21h-793q-29 0-51-21t-21-51z m0 288q0-30 21-51t51-21h793q30 0 51 21t21 51-21 51-51 21h-793q-29 0-51-21t-21-51z" horiz-adv-x="1073.2" />

<glyph glyph-name="smile-1" unicode="&#xe804;" d="M633 250q-21-67-77-109t-127-41-128 41-77 109q-4 14 3 27t21 18q14 4 27-2t17-22q14-44 52-72t85-28 84 28 52 72q4 15 18 22t27 2 21-18 2-27z m-276 243q0-30-21-51t-50-21-51 21-21 51 21 50 51 21 50-21 21-50z m286 0q0-30-21-51t-51-21-50 21-21 51 21 50 50 21 51-21 21-50z m143-143q0 73-29 139t-76 114-114 76-138 28-139-28-114-76-76-114-29-139 29-139 76-113 114-77 139-28 138 28 114 77 76 113 29 139z m71 0q0-117-57-215t-156-156-215-58-216 58-155 156-58 215 58 215 155 156 216 58 215-58 156-156 57-215z" horiz-adv-x="857.1" />

<glyph glyph-name="bed" unicode="&#xe805;" d="M143 279h964q15 0 25-11t11-25v-250h-143v143h-857v-143h-143v678q0 15 11 26t25 10h71q15 0 25-10t11-26v-392z m321 178q0 59-42 101t-101 42-101-42-41-101 41-101 101-42 101 42 42 101z m679-143v36q0 89-63 152t-151 62h-393q-15 0-25-10t-11-25v-215h643z" horiz-adv-x="1142.9" />

<glyph glyph-name="clock" unicode="&#xe806;" d="M500 850c276 0 500-224 500-500 0-276-224-500-500-500-276 0-500 224-500 500 0 276 224 500 500 500z m0-893c217 0 393 176 393 393 0 217-176 393-393 393-217 0-393-176-393-393 0-217 176-393 393-393z m45 643l0-266 241-136-40-62-282 160 0 304 81 0z" horiz-adv-x="1000" />

<glyph glyph-name="ic_like" unicode="&#xe807;" d="M143 100q0 15-11 25t-25 11-25-11-11-25 11-25 25-11 25 11 11 25z m643 321q0 29-22 50t-50 22h-196q0 32 27 89t26 89q0 55-17 81t-72 27q-14-15-21-48t-17-70-33-61q-13-13-43-51-2-3-13-16t-18-23-19-24-22-25-22-19-22-15-20-6h-18v-357h18q7 0 18-1t18-4 21-6 20-7 20-6 16-6q118-41 191-41h67q107 0 107 93 0 15-2 31 16 9 26 30t10 41-10 38q29 28 29 67 0 14-5 31t-14 26q18 1 30 26t12 45z m71 1q0-50-27-91 5-18 5-38 0-43-21-81 1-12 1-24 0-56-33-99 0-78-48-123t-126-45h-72q-54 0-106 13t-121 36q-65 23-77 23h-161q-29 0-50 21t-21 50v357q0 30 21 51t50 21h153q20 13 77 86 32 42 60 72 13 14 19 48t17 70 35 60q22 21 50 21 47 0 84-18t57-57 20-104q0-51-27-107h98q58 0 101-42t42-100z" horiz-adv-x="857.1" />

<glyph glyph-name="user-add" unicode="&#xe808;" d="M620 128q180-64 180-122l0-106-800 0 0 202q36 14 82 26 94 34 129 69t35 95q0 22-23 48t-31 74q-2 12-23 25t-25 61q0 16 5 26t9 12l4 4q-8 50-12 88-6 54 40 112t160 58 160-58 42-112l-14-88q18-8 18-42-2-28-9-43t-14-17-14-8-9-18q-10-46-33-73t-23-49q0-60 36-95t130-69z m230 272l150 0 0-100-150 0 0-150-100 0 0 150-150 0 0 100 150 0 0 150 100 0 0-150z" horiz-adv-x="1000" />

<glyph glyph-name="cog" unicode="&#xe809;" d="M571 350q0 59-41 101t-101 42-101-42-42-101 42-101 101-42 101 42 41 101z m286 61v-124q0-7-4-13t-11-7l-104-16q-10-30-21-51 19-27 59-77 6-6 6-13t-5-13q-15-21-55-61t-53-39q-7 0-14 5l-77 60q-25-13-51-21-9-76-16-104-4-16-20-16h-124q-8 0-14 5t-6 12l-16 103q-27 9-50 21l-79-60q-6-5-14-5-8 0-14 6-70 64-92 94-4 5-4 13 0 6 5 12 8 12 28 37t30 40q-15 28-23 55l-102 15q-7 1-11 7t-5 13v124q0 7 5 13t10 7l104 16q8 25 22 51-23 32-60 77-6 7-6 14 0 5 5 12 15 20 55 60t53 40q7 0 15-5l77-60q24 13 50 21 9 76 17 104 3 16 20 16h124q7 0 13-5t7-12l15-103q28-9 51-20l79 59q5 5 13 5 7 0 14-5 72-67 92-95 4-5 4-12 0-7-4-13-9-12-29-37t-30-40q15-28 23-54l102-16q7-1 12-7t4-13z" horiz-adv-x="857.1" />

<glyph glyph-name="right-open-big" unicode="&#xe80a;" d="M13-20l358 370-358 372q-26 26 0 48 26 26 48 0l392-394q24-26 0-50l-392-394q-22-26-48 0-26 22 0 48z" horiz-adv-x="465" />

<glyph glyph-name="right-open-mini" unicode="&#xe80b;" d="M13 180l158 170-158 172q-26 26 0 48 26 26 48 0l192-194q24-26 0-50l-192-194q-22-26-48 0-26 22 0 48z" horiz-adv-x="265" />

<glyph glyph-name="bookmark" unicode="&#xe80c;" d="M650 779q12 0 24-5 19-8 29-23t11-35v-719q0-19-11-35t-29-23q-10-4-24-4-27 0-47 18l-246 236-246-236q-20-19-46-19-13 0-25 5-18 7-29 23t-11 35v719q0 19 11 35t29 23q12 5 25 5h585z" horiz-adv-x="714.3" />

<glyph glyph-name="cancel-circled-1" unicode="&#xe80d;" d="M0 350q0 207 147 354t353 146 354-146 146-354-146-354-354-146-353 146-147 354z m219-156l125-125 156 156 156-156 125 125-156 156 156 156-125 125-156-156-156 156-125-125 156-156z" horiz-adv-x="1000" />

<glyph glyph-name="logout" unicode="&#xe80e;" d="M357 46q0-2 1-11t0-14-2-14-5-11-12-3h-178q-67 0-114 47t-47 114v392q0 67 47 114t114 47h178q8 0 13-5t5-13q0-2 1-11t0-15-2-13-5-11-12-3h-178q-37 0-63-26t-27-64v-392q0-37 27-63t63-27h174t6 0 7-2 4-3 4-5 1-8z m518 304q0-14-11-25l-303-304q-11-10-25-10t-25 10-11 25v161h-250q-14 0-25 11t-11 25v214q0 15 11 25t25 11h250v161q0 14 11 25t25 10 25-10l303-304q11-10 11-25z" horiz-adv-x="928.6" />

<glyph glyph-name="user-add-outline-1" unicode="&#xe80f;" d="M938 273l-313 0q-21 0-37 15t-15 36 15 37 37 15l313 0q21 0 36-15t16-37-16-36-36-15z m-157-157q-21 0-37 15t-15 37l0 312q0 21 15 37t37 16 37-16 16-37l0-312q0-22-16-37t-37-15z m-468 573q-65 0-111-46t-46-110 46-111 111-46 110 46 46 111-46 110-110 46z m0 104q107 0 183-77t77-183-77-184-183-76-184 76-76 184 76 183 184 77z m0-677q-74 0-127-22t-72-54q75-29 199-29t197 29q-21 30-73 53t-124 23z m0 104q136 0 224-63t88-146q0-41-89-72t-223-32q-140 0-227 32t-86 72q0 83 86 146t227 63z" horiz-adv-x="990" />

<glyph glyph-name="location-1" unicode="&#xe810;" d="M0 473q0 156 110 267t267 110 267-110 110-267q0-123-53-193l-324-430-324 430q-53 70-53 193z m219 0q0-66 46-112t112-46 112 46 46 112-46 112-112 46-112-46-46-112z" horiz-adv-x="754" />

<glyph glyph-name="ic_share" unicode="&#xe811;" d="M720 235c-57 0-108-26-141-67l-221 126c7 20 11 41 11 63 0 21-4 42-11 62l221 126c33-41 84-67 141-67 102 0 185 83 185 186 0 103-83 186-185 186-101 0-184-83-184-186 0-22 4-43 11-62l-221-127c-33 41-85 68-142 68-101 0-184-84-184-186 0-103 83-187 184-187 57 0 109 27 142 68l221-127c-7-19-11-40-11-62 0-103 83-186 184-186 102 0 185 83 185 186 0 103-83 186-185 186z m0 550c67 0 120-54 120-121 0-67-53-121-120-121-66 0-119 54-119 121 0 67 53 121 119 121z m-535-550c-67 0-120 55-120 122 0 66 53 121 120 121 66 0 119-55 119-121 0-67-53-122-119-122z m535-307c-66 0-119 54-119 121 0 67 53 121 119 121 67 0 120-54 120-121 0-67-53-121-120-121z" horiz-adv-x="905" />

<glyph glyph-name="cog-1" unicode="&#xe812;" d="M0 272l0 156 150 16q14 45 38 88l-96 117 109 109 117-95q41 23 88 37l16 150 156 0 16-150q45-14 88-37l117 95 109-109-96-117q24-43 38-88l150-16 0-156-150-16q-14-47-38-88l96-117-109-109-117 96q-43-24-88-38l-16-150-156 0-16 150q-47 14-88 38l-117-96-109 109 96 117q-24 41-38 88z m355 78q0-60 42-102t103-42 103 42 42 102-42 103-103 42-103-42-42-103z" horiz-adv-x="1000" />

<glyph glyph-name="ic_save" unicode="&#xe813;" d="M531 725h-31c-9 0-16-7-16-16v-140c0-9 15-16 24-16h23c9 0 16 7 16 16v140c0 9-7 16-16 16z m317-129l-102 101c-17 18-41 28-66 28h-55c-17 0-31-14-31-32v-156c0-17-14-31-32-31h-249c-18 0-32 14-32 31v156c0 18-14 32-31 32h-62c-35 0-63-28-63-62v-625c0-35 28-63 63-63h625c34 0 62 28 62 63v492c0 25-10 48-27 66z m-219-527c0-18-16-32-35-32h-313c-19 0-35 14-35 32v187c0 17 16 31 35 31h313c19 0 35-14 35-31v-187z" horiz-adv-x="1000" />

<glyph glyph-name="ic_badge" unicode="&#xe814;" d="M400 850c-221 0-400-177-400-394 0-136 70-255 176-326l0-251c0-10 5-19 13-24 8-6 19-7 28-3l183 82 183-82c4-1 8-2 12-2 6 0 11 2 16 5 8 5 13 14 13 24l0 251c106 71 176 190 176 326 0 217-179 394-400 394z m166-927l-154 69c-4 1-8 2-12 2-4 0-8-1-12-2l-154-69 0 174c15-7 30-12 45-17 1 0 2-1 3-1 2 0 4-1 6-2 1 0 3 0 4-1 2 0 3-1 5-1 2-1 4-1 6-2 1 0 2 0 4-1 2 0 4-1 6-1 1 0 2-1 4-1 2 0 4-1 7-1 1 0 2-1 3-1 2 0 5-1 7-1 1 0 2 0 3 0 2-1 5-1 8-2 1 0 1 0 2 0 3 0 6-1 8-1 1 0 2 0 3 0 2 0 5-1 8-1 1 0 1 0 2 0 3 0 6-1 8-1 1 0 2 0 3 0 3 0 5 0 8 0 1 0 2 0 2 0 4 0 8 0 11 0 4 0 7 0 11 0 0 0 1 0 2 0 3 0 6 0 8 0 1 0 2 0 3 0 3 0 5 1 8 1 1 0 1 0 2 0 3 0 6 1 8 1 1 0 2 0 3 0 3 0 5 1 8 1 1 0 2 0 2 0 3 1 6 1 8 2 1 0 2 0 3 0 2 0 5 1 8 1 0 0 1 1 2 1 3 0 5 1 8 1 1 0 2 1 3 1 2 0 4 1 6 1 2 1 3 1 4 1 2 1 4 1 6 2 2 0 3 1 5 1 1 1 3 1 4 1 2 1 4 2 6 2 1 0 2 1 3 1 15 5 30 10 45 17l0-174 0 0z m-55 215c-1-1-2-1-3-1-2-1-4-2-5-2-2-1-5-1-7-2-1-1-3-1-4-1-3-1-6-2-8-3-2 0-3 0-4 0-2-1-5-2-8-2-1 0-1 0-2-1-3 0-7-1-11-2 0 0 0 0-1 0-3 0-6-1-9-1-1 0-2-1-3-1-3 0-7-1-10-1 0 0 0 0 0 0-4 0-8-1-11-1-1 0-2 0-3 0-3 0-5 0-8 0-1 0-2-1-3-1-4 0-7 0-11 0-4 0-7 0-11 0-1 0-2 1-3 1-2 0-5 0-8 0-1 0-2 0-3 0-3 0-7 1-10 1-1 0-1 0-1 0-3 1-7 1-10 1-1 0-2 1-2 1-4 0-7 1-10 1-1 0-1 0-1 0-4 1-7 2-11 2-1 1-1 1-2 1-3 0-6 1-8 2-1 0-2 0-3 0-3 1-6 2-9 3-1 0-3 0-4 1-2 1-4 1-7 2-1 0-3 1-5 2-1 0-2 0-3 1-134 45-230 171-230 318 0 185 153 336 341 336 188 0 342-151 342-336 0-147-97-273-231-318z m64 312l55 105c5 9 5 20-1 28-5 9-14 15-24 15l-118 4-62 101c-5 8-15 14-25 14-10 0-20-6-25-14l-62-101-118-4c-10 0-19-6-24-15-5-8-6-19-1-28l55-105-55-105c-5-9-4-19 1-28 5-9 14-15 24-15l118-4 62-101c5-8 15-14 25-14 10 0 20 6 25 14l62 101 118 4c10 0 19 6 24 15 6 9 6 19 1 28l-55 105z m-105-94c-10 0-19-5-24-13l-46-74-46 74c-5 8-14 13-24 13l-86 4 41 76c4 9 4 19 0 28l-41 77 86 3c10 0 19 5 24 14l46 73 46-73c5-9 14-14 24-14l86-3-41-77c-4-9-4-19 0-28l41-77-86-3z" horiz-adv-x="800" />

<glyph glyph-name="ic_exit" unicode="&#xe815;" d="M394 151l78-79 278 278-278 278-78-79 143-143-537 0 0-112 537 0-143-143z m495 699l-778 0c-62 0-111-50-111-111l0-222 111 0 0 222 778 0 0-778-778 0 0 222-111 0 0-222c0-61 49-111 111-111l778 0c61 0 111 50 111 111l0 778c0 61-50 111-111 111z" horiz-adv-x="1000" />

<glyph glyph-name="privacy_term" unicode="&#xe816;" d="M500 538c-34 0-62-28-62-63v-62h125v62c0 35-28 63-63 63z m402 306c-22 10-47 7-66-8-78-63-219-62-297 0-23 19-55 19-78 0-78-63-219-62-297 0-19 15-44 18-66 8-22-10-35-32-35-56l0-500c0-196 157-359 420-436 5-1 11-2 17-2 6 0 12 1 18 2 263 77 420 240 420 436v500c0 24-14 46-36 56z m-214-619c0-34-28-62-63-62h-250c-34 0-62 28-62 62v125c0 35 28 63 62 63v62c0 69 56 125 125 125 69 0 125-56 125-125v-62c35 0 63-28 63-63v-125z m-188 94c-17 0-31-14-31-31 0-18 14-32 31-32 17 0 31 14 31 32 0 17-14 31-31 31z" horiz-adv-x="1000" />

<glyph glyph-name="ic_history_transaction_2" unicode="&#xe817;" d="M110 480c0 204 166 370 370 370 169 0 312-114 356-269-8-9-14-20-15-32l-4-33-7-36-38 0c0 161-131 292-292 292-161 0-292-131-292-292 0-109 61-204 150-255l-57-57c-103 66-171 181-171 312z m370 232c-21 0-39-17-39-39v-193c0-22 18-39 39-39h222c22 0 39 17 39 39 0 21-17 39-39 39h-183v154c0 22-17 39-39 39z m409-173c0 11-9 19-19 19-10 1-19-6-20-17l-4-33-8-39c-3-14-6-28-12-43l-8-26-13-27c-4-11-11-23-18-35-4-6-8-12-11-18-4-5-7-10-11-15-9-13-18-25-29-38-11-12-23-24-36-36-3-3-7-7-11-10-4-3-8-7-12-10-14-10-27-20-42-29-12-9-25-15-38-22-6-2-11-5-17-8-6-2-13-5-19-7-12-5-23-9-35-12l-26-7-26-5c-13-2-24-3-35-4l-21-1-3 0v91c0 8-5 15-12 18-7 3-16 2-21-4l-169-169c-4-3-6-8-6-14 0-5 2-10 6-13l169-169c3-4 8-6 13-6 3 0 6 0 8 1 7 3 12 11 12 19v95l36 7c17 3 38 8 58 15l23 8 38 16c17 7 32 16 47 24 6 4 13 8 19 11 1 1 2 1 2 2 5 3 11 7 16 11 16 11 32 22 46 35 17 14 32 30 47 45l11 12c0 0 1 1 1 1l10 12c13 17 26 34 36 51 12 17 21 34 29 50 3 6 6 12 9 17 0 1 0 2 1 2 2 7 5 14 8 21 6 15 12 30 16 45l9 33 5 28c4 19 5 36 6 51l2 25-1 52z" horiz-adv-x="1000" />

<glyph glyph-name="ic_group" unicode="&#xe818;" d="M397 206c-92-21-160-103-160-201 0-23 4-46 11-67l-114 0c-74 0-134 60-134 134 0 74 60 134 134 134l263 0z m193 621c-95-68-158-177-158-300 0-100 42-191 109-258-22-5-45-8-69-8-168 0-304 132-304 295 0 162 136 294 304 294 42 0 82-8 118-23z m228-623c-186 0-336 145-336 323 0 178 150 323 336 323 185 0 335-145 335-323 0-178-150-323-335-323z m0 87c135 0 245 106 245 236 0 131-110 236-245 236-136 0-246-105-246-236 0-130 110-236 246-236z m-375-147l744 0c81 0 146-66 146-147 0-81-65-147-146-147l-744 0c-81 0-147 66-147 147 0 81 66 147 147 147z m17-85c-36 0-66-30-66-66 0-37 30-66 66-66l719 0c37 0 66 29 66 66 0 36-29 66-66 66l-719 0z" horiz-adv-x="1333" />

<glyph glyph-name="ic_user_profile" unicode="&#xe819;" d="M382 814c-105 0-190-85-190-190l0-128c0-105 85-190 190-190 105 0 189 85 189 190l0 128c0 105-84 190-189 190z m-338-829c2-1 4-2 6-3 26-14 54-27 84-40 74-30 147-50 213-55 10 0 19-1 28-1 80 0 165 20 246 54 30 12 58 26 80 39 2 1 4 2 6 3-18 46-65 138-95 169-30 30-48 36-80 34-6 0-8 0-11 0-1 0 2 1-39-19-26-13-47-21-70-25-36-6-65-2-99 11-5 1-9 3-15 5-7 3-11 4-14 5-4 2-4 2-7 3-2 1-20 7-25 9-8 3-15 5-21 7-17 5-30 6-44 4-35-12-70-50-101-106-15-26-27-55-38-84-2-3-3-7-4-10z" horiz-adv-x="750" />

<glyph glyph-name="ic_camera-1" unicode="&#xe81a;" d="M1098 651c-29 28-63 43-104 43l-130 0-29 77c-8 18-21 34-40 47-20 14-40 21-60 21l-296 0c-20 0-40-7-60-21-19-13-33-29-40-47l-29-77-130 0c-41 0-76-15-104-43-29-28-44-62-44-102l0-508c0-40 15-74 44-103 28-28 63-42 104-42l814 0c41 0 75 14 104 42 29 29 44 63 44 103l0 508c0 40-15 74-44 102z m-328-536c-51-49-112-74-183-74-71 0-132 25-183 74-51 50-76 110-76 180 0 70 25 129 76 179 51 50 112 75 183 75 71 0 132-25 183-75 50-50 76-109 76-179 0-70-26-130-76-180z m-183 343c-46 0-85-16-118-48-32-32-49-70-49-115 0-45 17-84 49-116 33-31 72-47 118-47 46 0 85 16 117 47 33 32 49 71 49 116 0 45-16 83-49 115-32 32-71 48-117 48z" horiz-adv-x="1167" />

<glyph glyph-name="ic_photo" unicode="&#xe81b;" d="M1000-39c0-61-50-111-111-111l-778 0c-61 0-111 50-111 111l0 778c0 61 50 111 111 111l778 0c61 0 111-50 111-111l0-778z m-100 37l0 685c0 48 4 58-44 58l-690 0c-48 0-58-10-58-58l0-685c0-48 10-49 58-49l664 0c49 0 70 1 70 49z m-640 250l156-206 218 308 281-410-873 0 218 308z" horiz-adv-x="1000" />

<glyph glyph-name="ic_note" unicode="&#xe81c;" d="M661 850l214-223 0-655c0-67-53-122-119-122l-637 0c-66 0-119 55-119 122l0 756c0 68 53 122 119 122l542 0z m-458-334c-30 0-54 24-54 54 0 30 24 55 54 55l213 0c30 0 54-25 54-55 0-30-24-54-54-54l-213 0z m0-239c-30 0-54 24-54 54 0 30 24 55 54 55l448 0c30 0 54-25 54-55 0-30-24-54-54-54l-448 0z m470-109c29 0 53-24 53-54 0-30-24-54-53-54l-470 0c-30 0-54 24-54 54 0 30 24 54 54 54l470 0z m83-231c19 0 34 16 34 35l0 614-94 1c-42 1-76 36-76 79l0 98-501 0c-18 0-34-16-34-36l0-756c0-19 16-35 34-35l637 0z" horiz-adv-x="875" />

<glyph glyph-name="ic_map_marker" unicode="&#xe81d;" d="M500 850c-207 0-375-168-375-375 0-84 28-162 75-225l300-400 300 400c47 63 75 141 75 225 0 207-168 375-375 375z m0-625c-138 0-250 112-250 250 0 138 112 250 250 250 138 0 250-112 250-250 0-138-112-250-250-250z" horiz-adv-x="1000" />

<glyph glyph-name="ic_calendar" unicode="&#xe81e;" d="M897 742c-3 0-5 0-7 0h-77v66c0 26-25 42-52 42h-71c-26 0-45-16-45-42v-66h-290v66c0 26-19 42-45 42h-71c-27 0-52-16-52-42v-66h-77c-50 1-91-38-92-87 0-2 0-4 0-6v-697c0-53 39-102 92-102h780c53 0 92 49 92 102v697c2 49-36 91-85 93z m-207 60h75v-133h-75v133z m-451 0h68v-133h-68v133z m695-850c0-26-17-54-44-54h-780c-27 0-44 28-44 54v513h868v-513z m0 697v-136h-868v136c-2 22 15 42 37 44 2 1 5 1 7 0h77v-26c0-27 25-46 52-46h71c24-1 45 19 45 43 0 1 0 2 0 3v26h290v-26c-1-25 18-45 43-46 1 0 2 0 2 0h71c27 0 52 19 52 46v26h77c23 2 42-15 44-38 0-2 0-4 0-6z m-568-513l-21-121c-1-5 0-10 2-15 6-12 21-16 33-10l108 56 108-56 11-3c6 0 11 2 15 5 7 5 11 14 9 23l-21 121 88 84c6 7 8 16 6 25-4 8-11 14-20 16l-120 18-54 110c-3 4-7 8-11 11-12 6-27 1-33-11l-54-110-120-18c-9-2-16-8-20-16-2-9 0-18 6-25l88-84z m67 97c7 1 14 6 16 13l39 78 39-78c2-7 9-12 16-13l86-12-61-59c-6-6-9-14-8-22l15-85-76 41-11 2-11-2-76-41 15 85c1 8-2 16-8 22l-61 59 86 12z" horiz-adv-x="1000" />

<glyph glyph-name="search" unicode="&#xe81f;" d="M643 386q0 103-73 176t-177 74-177-74-73-176 73-177 177-73 177 73 73 177z m286-465q0-29-22-50t-50-21q-30 0-50 21l-191 191q-100-69-223-69-80 0-153 31t-125 84-84 125-31 153 31 152 84 126 125 84 153 31 153-31 125-84 84-126 31-152q0-123-69-223l191-191q21-21 21-51z" horiz-adv-x="928.6" />

<glyph glyph-name="ic_marker_outline" unicode="&#xe820;" d="M500 850c-200 0-362-162-362-362 0-248 324-612 338-627 13-15 35-15 48 0 14 15 338 379 338 627 0 200-162 362-362 362z m0-917c-109 129-297 385-297 555 0 164 133 297 297 297s297-133 297-297c0-170-188-426-297-555z m0 737c-100 0-182-82-182-182s82-182 182-182 182 81 182 182-81 182-182 182z m0-299c-64 0-117 52-117 117s53 117 117 117 117-53 117-117-52-117-117-117z" horiz-adv-x="1000" />

<glyph glyph-name="ic_pencil" unicode="&#xe821;" d="M952 802c-63 64-166 64-230 0l-653-652c0-1 0-1 0-1-1-1-1-1-1-2-1-1-2-2-3-4 0 0 0-1 0-1 0-1 0-1 0-1l-64-269c-1-1-1-2-1-3 0-1 0-1 0-1 0-2 1-4 1-6 0-1 1-1 1-1 1-2 2-4 3-6 2-1 4-3 6-4 2-1 5-1 7-1 2 0 3 0 4 0l269 64c1 1 1 1 1 1 1 0 2 0 2 1 2 0 3 1 4 2 0 0 1 0 1 1 0 0 1 0 1 0l652 653c64 64 64 167 0 230z m-25-25c45-45 49-116 12-166l-178 178c50 37 121 33 166-12z m-90-269l-179 179 26 26 179-179-26-26z m-747-568c-7 7-19 7-26 0l-13-14 46 194 80 9-10-92c-1-1 0-2 0-2 0-1-1-2 0-2 0-1 0-2 0-2 0-1 1-2 1-3 0-1 1-2 2-3 0-1 1-2 1-3 1-1 2-1 3-2 1-1 2-1 3-2 1 0 2-1 4-1 0 0 1 0 1 0 1-1 2-1 2-1 0 0 0 0 0 0 0 0 1 0 1 0h0c0 0 0 0 0 0 0 0 1 0 2 1l92 10-9-80-194-47 14 14c7 7 7 19 0 26z m227 99l405 405c7 7 7 19 0 26s-18 7-26 0l-405-405-86-10 10 86 405 405c7 8 7 19 0 26s-19 7-26 0l-405-405-58-6 501 501 180-180-501-501 6 58z m571 520l-179 179 26 26 179-179-26-26z" horiz-adv-x="1000" />

<glyph glyph-name="ic_walk" unicode="&#xe822;" d="M286 650c-53 0-95 45-95 100 0 55 42 100 95 100 52 0 95-45 95-100 0-55-43-100-95-100z m37-3c199-10 263-178 246-305-8-53-122-54-114 0 7 49 3 123-36 172-1-61 3-122 3-183 1-4 2-8 2-12 0-141 0-282 8-422 3-63-127-63-130 0-6 110-8 220-8 330-6 0-13 0-19 0 0-110-2-220-8-330-3-63-133-63-130 0 8 140 8 281 8 422 0 1 1 1 1 2 0 2-1 4-1 6l0 178c-32-49-35-117-28-163 7-54-107-54-114 0-18 125 44 288 233 304 28 5 59 5 87 1z" horiz-adv-x="571" />

<glyph glyph-name="ic_motobike" unicode="&#xe823;" d="M126 15l277 0c-17-65-72-113-138-113-66 0-122 48-139 113z m815 0l277 0c-17-65-73-113-139-113-66 0-121 48-138 113z m233 381c42-32 57-90 37-140l-2-1c-37 26-82 41-130 41-125 0-227-102-239-232l-816 0c-14 7-24 23-24 41l0 69c0 106 62 197 150 234l409 0c-41-69-54-152-37-230l73 0c102 0 194 65 233 166l29 88 2 234-108-35c-4-1-8-2-13-2-19 0-38 14-43 35-8 26 6 53 30 61l181 58c19 14 42 23 67 23 12 0 23-4 32-11 9 10 21 16 34 16 25 0 46-22 46-49l0-101c0-27-21-49-46-49-10 0-20 4-27 10l0-103 162-123z m-604 146c26 0 46-21 46-48 0-15-6-28-15-37l-344 0c-9 9-15 22-15 37 0 27 20 48 46 48l282 0z m509-295c100 0 182-80 194-183l-387 0c11 103 94 183 193 183z" horiz-adv-x="1273" />

<glyph glyph-name="ic_bike" unicode="&#xe824;" d="M1087 503c-2 0-5-1-7-1l-43 239c-2 13-10 24-22 31-11 7-25 8-38 5l-129-38c-25-7-39-32-31-56 7-24 34-38 59-31l77 23 17-99-403 0 0 20 49 12c20 4 34 22 33 42-1 23-22 41-46 39l-183-10c-4 0-8 0-11-1-33-8-53-40-44-71 8-31 41-50 73-42l34 8 0-30-39-64c-37 15-78 24-120 24-173 0-313-140-313-312 0-172 140-312 313-312 157 0 287 116 309 266l51 0c13 0 26 6 35 15l70 75c-2-15-4-29-4-44 0-172 141-312 313-312 173 0 313 140 313 312 0 172-140 312-313 312z m-774-533c-120 0-218 99-218 221 0 121 98 221 218 221 25 0 49-6 71-14l-112-185c-9-14-9-31 0-45 8-14 24-23 41-23l213 0c-21-100-108-175-213-175z m213 266l-130 0 68 113c31-30 53-69 62-113z m126 0l-30 0c-11 78-51 146-109 194l34 55 337 0-232-249z m435-266c-120 0-218 99-218 221 0 91 55 170 134 203l37-211c4-22 24-38 47-38 3 0 6 0 8 1 26 4 43 28 39 52l-38 213c116-5 209-102 209-220 0-122-98-221-218-221z" horiz-adv-x="1400" />

<glyph glyph-name="plus" unicode="&#xe825;" d="M786 439v-107q0-22-16-38t-38-15h-232v-233q0-22-16-37t-38-16h-107q-22 0-38 16t-15 37v233h-232q-23 0-38 15t-16 38v107q0 23 16 38t38 16h232v232q0 22 15 38t38 16h107q23 0 38-16t16-38v-232h232q23 0 38-16t16-38z" horiz-adv-x="785.7" />

<glyph glyph-name="search-1" unicode="&#xe826;" d="M772 78q30-34 6-62l-46-46q-36-32-68 0l-190 190q-74-42-156-42-128 0-223 95t-95 223 90 219 218 91 224-95 96-223q0-88-46-162z m-678 358q0-88 68-156t156-68 151 63 63 153q0 88-68 155t-156 67-151-63-63-151z" horiz-adv-x="789" />

<glyph glyph-name="check" unicode="&#xe827;" d="M249 0q-34 0-56 28l-180 236q-16 24-12 52t26 46 51 14 47-28l118-154 296 474q16 24 43 30t53-8q24-16 30-43t-8-53l-350-560q-20-32-56-32z" horiz-adv-x="667" />

<glyph glyph-name="ic_user_guide_1" unicode="&#xe828;" d="M128 733v-652c0-65 52-117 117-117h50v-114l107 48 108-48v114h362v886h-627c-65 0-117-53-117-117z m323-792l-49 22-49-22v81h98v-81z m363 81h-304v59h-215v-59h-50c-32 0-59 27-59 59 0 32 27 59 59 59h569v-118z m0 176h-569c-21 0-41-5-59-16v551c0 32 27 58 59 58h569v-593z m-119 268v58h-44c-4 21-12 40-23 57l31 31-42 42-31-32c-17 12-36 20-57 24v44h-58v-44c-21-4-40-12-57-24l-31 32-42-42 32-31c-12-17-20-36-24-57h-44v-58h44c4-21 12-40 24-57l-32-32 42-41 31 31c17-11 36-19 57-23v-44h58v44c21 4 40 12 57 23l31-31 42 41-31 32c11 17 19 36 23 57h44z m-195-66c-52 0-95 42-95 95s43 95 95 95c53 0 95-43 95-95s-42-95-95-95z" horiz-adv-x="1000" />

<glyph glyph-name="ic_user_guide_2" unicode="&#xe829;" d="M500 590c-52 0-95-43-95-95 0-53 43-95 95-95s95 42 95 95c0 52-42 95-95 95z m-283 260c-38 0-69-31-69-68v-647c20 13 44 20 69 20h635v695h-635z m478-384h-44c-4-21-12-40-23-57l31-32-42-41-31 31c-17-11-36-19-57-23v-45h-58v45c-21 4-40 12-57 23l-31-31-42 41 32 32c-12 17-20 36-24 57h-44v58h44c4 21 12 40 24 57l-32 31 42 42 31-32c17 12 36 20 57 24v44h58v-44c21-4 40-12 57-24l31 32 42-42-31-31c11-17 19-36 23-57h44v-58z m-478-369c-38 0-69-31-69-69s31-68 69-68h58v65h233v-65h344v137h-635z" horiz-adv-x="1000" />

<glyph glyph-name="ic_highlight-1" unicode="&#xe82a;" d="M977 389l-155-152c-10-10-14-23-12-37l39-213c5-28-7-57-30-74-24-17-55-19-81-6l-193 99c-12 7-27 7-39 0l-192-102c-12-6-24-9-36-9-16 0-31 5-45 15-23 17-35 45-30 73l35 214c2 13-2 27-12 36l-157 150c-21 20-29 50-20 78 9 27 32 47 61 51l216 33c13 2 25 10 31 23l95 194c13 26 39 42 69 43 29 0 55-16 68-42l98-193c6-12 18-21 32-23l34-2c9-1 15-10 14-19-1-10-10-16-19-15l-34 3c-25 3-47 18-58 41l-97 193c-8 14-22 23-38 23-17 0-31-9-38-24l-95-194c-11-22-32-38-57-42l-216-32c-16-3-28-13-33-29-5-15-1-31 11-42l157-150c18-17 26-42 22-67l-36-213c-2-16 4-31 17-41 14-9 30-10 45-3l192 102c22 12 48 12 71 0l193-99c15-7 31-6 44 3 14 10 20 25 17 41l-38 213c-5 25 3 50 21 67l155 152c12 11 16 27 11 43-5 15-4 21-21 23-9 1-15 10-14 19 1 9 10 16 19 14 29-4 39-18 48-46 9-27 2-57-19-77z m-132 109c-9 1-15 10-14 19 1 9 10 16 19 15l11-2c10-1 16-10 15-19-1-9-8-15-17-15-1 0-1 0-2 0l-12 2z" horiz-adv-x="1045" />

<glyph glyph-name="ic_explorer" unicode="&#xe82b;" d="M500-150c276 0 500 224 500 500 0 276-224 500-500 500-276 0-500-224-500-500 0-276 224-500 500-500z m0 81c-231 0-419 188-419 419 0 231 188 419 419 419 231 0 419-188 419-419 0-231-188-419-419-419z m-133 493l-122-277c-3-6-5-12-5-19 0-21 17-38 38-38l0 0c5 0 11 1 16 3l280 123c9 4 16 11 20 20l123 281c6 14 3 31-8 42-11 11-28 14-42 8l-281-123c-9-4-16-11-19-20z m163-144l-179-79 79 179 179 79-79-179z" horiz-adv-x="1000" />

<glyph glyph-name="ic_send" unicode="&#xe82c;" d="M940 439l-806 335c-34 14-73 8-101-16-27-24-39-61-30-97l72-282h352c16 0 29-13 29-29 0-16-13-29-29-29h-352l-72-282c-9-36 3-73 30-97 28-24 67-30 101-16l806 335c37 15 60 49 60 89 0 40-23 74-60 89z" horiz-adv-x="1000" />

<glyph glyph-name="ic_highlight" unicode="&#xe82d;" d="M977 389l-155-152c-10-10-14-23-12-37l39-213c5-28-7-57-30-74-24-17-55-19-81-6l-193 99c-12 7-27 7-39 0l-192-102c-12-6-24-9-36-9-16 0-31 5-45 15-23 17-35 45-30 73l35 214c2 13-2 27-12 36l-157 150c-21 20-29 50-20 78 9 27 32 47 61 51l216 33c13 2 25 10 31 23l95 194c13 26 39 42 69 43 29 0 55-16 68-42l98-193c6-12 18-21 32-23l34-2c9-1 15-10 14-19-1-10-10-16-19-15l-34 3c-25 3-47 18-58 41l-97 193c-8 14-22 23-38 23-17 0-31-9-38-24l-95-194c-11-22-32-38-57-42l-216-32c-16-3-28-13-33-29-5-15-1-31 11-42l157-150c18-17 26-42 22-67l-36-213c-2-16 4-31 17-41 14-9 30-10 45-3l192 102c22 12 48 12 71 0l193-99c15-7 31-6 44 3 14 10 20 25 17 41l-38 213c-5 25 3 50 21 67l155 152c12 11 16 27 11 43-5 15-4 21-21 23-9 1-15 10-14 19 1 9 10 16 19 14 29-4 39-18 48-46 9-27 2-57-19-77z m-132 109c-9 1-15 10-14 19 1 9 10 16 19 15l11-2c10-1 16-10 15-19-1-9-8-15-17-15-1 0-1 0-2 0l-12 2z" horiz-adv-x="1045" />

<glyph glyph-name="ic_heart" unicode="&#xe82e;" d="M998 538c-14 160-128 277-270 277-95 0-182-51-231-133-48 83-131 133-225 133-142 0-256-117-270-277-1-7-6-45 8-106 21-87 69-167 139-231l348-316 354 316c70 64 118 143 139 231 14 61 10 99 8 106z m-46-97c-18-80-62-153-126-211l-329-293-322 293c-65 58-108 131-127 211-14 58-8 90-8 91l0 2c12 140 110 242 232 242 90 0 170-55 207-144l18-42 18 42c37 88 121 144 213 144 122 0 220-102 232-244 0-1 6-33-8-91z" horiz-adv-x="1000" />

<glyph glyph-name="settings" unicode="&#xe82f;" d="M974 675h-616v25c0 35-29 65-65 65h-101c-35 0-64-30-64-65v-25h-102c-14 0-26-11-26-26 0-14 12-25 26-25h102v-25c0-36 29-65 64-65h101c36 0 65 29 65 65v25h616c14 0 26 11 26 25 0 15-12 26-26 26z m-668-76c0-7-6-13-13-13h-101c-7 0-13 6-13 13v101c0 7 6 13 13 13h101c7 0 13-6 13-13v-101z m668-212h-101v24c0 36-30 65-65 65h-101c-36 0-65-29-65-65v-24h-616c-14 0-26-12-26-26 0-15 12-26 26-26h616v-25c0-35 29-64 65-64h101c35 0 65 29 65 64v25h101c14 0 26 11 26 26 0 14-12 26-26 26z m-153-77c0-7-6-13-13-13h-101c-7 0-13 6-13 13v101c0 7 6 13 13 13h101c7 0 13-6 13-13v-101z m153-233h-434v24c0 36-29 65-65 65h-100c-36 0-65-29-65-65v-24h-284c-14 0-26-12-26-26 0-15 12-26 26-26h284v-25c0-35 29-65 65-65h100c36 0 65 30 65 65v25h434c14 0 26 11 26 26 0 14-12 26-26 26z m-486-77c0-7-6-13-13-13h-100c-8 0-13 6-13 13v101c0 7 5 13 13 13h100c7 0 13-6 13-13v-101z" horiz-adv-x="1000" />

<glyph glyph-name="search_location" unicode="&#xe830;" d="M606 479c-11 0-20-9-20-20s9-19 20-19c10 0 19 9 19 19s-9 20-19 20z m371-496l-261 261c43 64 65 138 65 215 0 216-175 391-390 391s-391-175-391-391 175-390 391-390c77 0 151 22 215 65l72-72c0 0 0 0 0 0l189-189c14-15 34-23 55-23 21 0 40 8 55 23 15 15 23 34 23 55s-8 41-23 55z m-380 192c0 0 0 0 0 0-60-44-132-67-206-67-194 0-352 158-352 351s158 352 352 352 351-158 351-352c0-74-23-145-67-206-22-30-48-56-78-78z m41-18c20 17 38 35 55 55l55-55c-16-20-35-38-55-55l-55 55z m312-257c-8-7-18-11-28-11s-20 4-28 11l-173 174c20 17 38 35 55 55l174-173c7-8 11-17 11-28 0-10-4-20-11-28z m-559 872c-173 0-313-140-313-313s140-312 313-312 312 140 312 312-140 313-312 313z m0-586c-151 0-274 123-274 273s123 274 274 274 273-123 273-274-123-273-273-273z m219 357c-17 44-47 81-85 108-40 28-86 43-134 43-11 0-20-9-20-20 0-11 9-19 20-19 80 0 153-51 182-126 3-8 10-12 18-12 3 0 5 0 7 1 10 4 15 15 12 25z" horiz-adv-x="1000" />

<glyph glyph-name="ic_note_edit" unicode="&#xe831;" d="M612 483h-417c-9 0-16-7-16-16s7-17 16-17h417c9 0 17 8 17 17s-8 16-17 16z m-417 100h167c9 0 17 8 17 17s-8 17-17 17h-167c-9 0-16-8-16-17s7-17 16-17z m417-233h-417c-9 0-16-7-16-17s7-16 16-16h417c9 0 17 7 17 16s-8 17-17 17z m-133-133h-284c-9 0-16-8-16-17s7-17 16-17h284c9 0 16 8 16 17s-7 17-16 17z m-50-167c9 0 16 8 16 17s-7 16-16 16h-234c-9 0-16-7-16-16s7-17 16-17h234z m-384 767h484v-234h233v-300h33v324l-243 243h-540v-1000h483v33h-450v934z m517-24l176-176h-176v176z m412-562l-48 47c-19 19-52 19-70 0l-257-256-35-130-9-9c-6-6-6-17 0-23l0 0 0 0c4-4 8-5 12-5 4 0 8 1 12 5l8 8 130 36 257 256c9 10 14 22 14 36s-5 25-14 35z m-336-218l170 171 71-71-171-171-70 71z m-15-32l53-54-74-20 21 74z m327 203l-47-47-71 70 47 48c6 6 17 6 23 0l48-48c3-3 5-7 5-11 0-5-2-9-5-12z" horiz-adv-x="1000" />

<glyph glyph-name="ic_menu_home-1" unicode="&#xe832;" d="M500 587l-357-294c0 0 0-1 0-2 0 0 0-1 0-1v-298c0-11 4-20 12-28 7-8 17-12 27-12h239v238h158v-238h239c10 0 20 4 28 12 7 8 11 17 11 28v298c0 1 0 2 0 3l-357 294z m493-227l-136 113v253c0 6-2 11-5 15-4 3-9 5-15 5h-119c-5 0-10-2-14-5-4-4-5-9-5-15v-121l-152 127c-13 11-29 16-47 16-18 0-34-5-47-16l-446-372c-4-3-6-7-7-13 0-6 1-10 4-15l39-46c3-3 8-6 13-6 5-1 10 1 15 4l429 358 429-358c4-3 8-4 13-4h2c6 0 10 3 13 6l39 46c3 5 4 9 4 15 0 6-3 10-7 13z" horiz-adv-x="1000" />

<glyph glyph-name="ic_menu_notification" unicode="&#xe833;" d="M500-150c57 0 103 46 103 103h-206c0-57 46-103 103-103z m308 308v256c0 158-84 289-231 324v35c0 43-34 77-77 77s-77-34-77-77v-35c-147-35-231-166-231-324v-256l-102-103v-51h820v51l-102 103z" horiz-adv-x="1000" />

<glyph glyph-name="ic_history_transaction" unicode="&#xe835;" d="M525 825c-175 0-330-95-410-240l-115 115v-325h325l-140 140c65 125 190 210 340 210 205 0 375-170 375-375s-170-375-375-375c-165 0-300 105-355 250h-105c55-200 240-350 460-350 265 0 475 215 475 475 0 260-215 475-475 475z m-75-250v-255l235-140 40 65-200 120v210h-75z" horiz-adv-x="1000" />

<glyph glyph-name="profile" unicode="&#xe836;" d="M498 292c148 0 268 120 268 267s-120 267-268 267-267-120-267-267 120-267 267-267z m0 464c109 0 197-88 197-197s-88-197-197-197-197 89-197 197 89 197 197 197z m-463-882h930c19 0 35 15 35 35 0 185-150 336-336 336h-328c-185 0-336-150-336-336 0-20 16-35 35-35z m301 300h328c135 0 246-100 263-230h-854c17 129 128 230 263 230z" horiz-adv-x="1000" />

<glyph glyph-name="ic_reward" unicode="&#xe837;" d="M923 0c0 0-111 191-131 225 23 7 47 13 57 31 17 29-13 76-5 107 8 32 56 59 56 91 0 32-50 69-58 100-7 31 22 79 5 108-16 28-72 26-95 48-24 23-24 79-52 94-29 15-75-16-107-9-32 8-60 55-93 55-33 0-86-54-94-56-32-7-79 24-107 9-29-16-29-71-52-94-23-22-79-20-96-49-16-29 13-76 6-107-8-31-57-63-57-98 0-33 47-60 55-92 8-31-21-78-5-107 9-16 30-22 51-28 2-1 7-4 4-8-14-25-128-221-128-221-9-16-2-29 16-30l88-4c18-1 41-14 51-29l47-75c9-15 25-15 34 1 0 0 132 228 132 228 2 3 5 2 6 1 15-12 35-24 52-24 16 0 31 11 46 24 2 1 5 3 7-1 0 0 132-227 132-227 9-16 24-16 34 0l47 74c9 16 32 29 50 30l88 3c18 1 25 15 16 30z m-277 205c-97-57-214-51-304 6-131 84-174 258-95 394 79 138 255 186 394 111 0-1 1-1 2-2 1 0 2-1 3-1 43-25 80-61 106-107 82-140 34-319-106-401z m-22 466c0 1-1 1-1 1-74 43-169 46-248 0-118-68-158-220-89-337 20-36 49-65 82-86 3-1 6-3 9-5 117-68 269-28 337 90 68 118 28 269-90 337z m30-192l-42-40c-12-13-20-37-17-55l9-57c3-17-7-25-23-17l-51 27c-16 9-42 9-57 0l-51-27c-16-8-26 0-23 17l9 57c3 18-5 42-17 55l-42 40c-12 12-9 25 9 27l57 8c18 3 39 18 47 34l25 52c8 16 21 16 29 0l25-52c8-16 29-31 47-34l57-8c17-2 21-15 9-27z" horiz-adv-x="1000" />

<glyph glyph-name="ic_taxi" unicode="&#xe838;" d="M957 483c-4 0-9-1-13-2l-49-13-51 125c-16 37-61 68-102 68h-34v103c0 19-15 33-33 33h-350c-18 0-33-14-33-33v-103h-35c-40 0-86-31-101-68l-52-125-48 13c-4 1-9 2-13 2-25 0-43-19-43-45v-26c0-31 25-56 55-56h4l-8-17c-14-35-26-94-26-132v-249c0-31 25-55 55-55h67c30 0 55 24 55 55v61h596v-61c0-31 24-55 55-55h66c30 0 55 24 55 55v249c0 38-12 97-26 132l-7 17h4c30 0 55 25 55 56v26c0 26-18 45-43 45z m-324 270c0 1 0 2 1 2h26c0 0 1-1 1-2v-91c0-1 0-1-1-1h-27c0 0 0 0 0 1v91z m-183 2h31c1 0 1-1 2-2l36-91 33 41c1 1 1 2 0 2l-32 49c0 0 0 1 1 1h28c1 0 2-1 2-1l17-27c0-1 1-1 1 0l17 27c0 0 1 1 2 1h28c1 0 1-1 0-1l-31-49c-1 0-1-1 0-2l34-42c0 0 0 0 0 0h-30c-1 0-1 0-1 1l-19 29c0 1-1 1-1 0l-19-29c0-1 0-1-1-1h-56c-1 0-1 0-1 1l-7 19c0 0-1 1-1 1h-35c-1 0-1-1-2-1l-6-19c-1-1-1-1-1-1h-27c-1 0-1 0-1 1l37 91c1 1 1 2 2 2z m-89-93v73c0 0-1 1-2 1h-30c-1 0-2 0-2 1v16c0 1 1 2 2 2h92c1 0 1-1 1-2v-16c0-1 0-1-1-1h-31c-1 0-1-1-1-1v-73c0-1 0-1-1-1h-27c0 0 0 0 0 1z m-218-275l78 190c10 23 37 41 61 41h435c25 0 52-18 61-41l78-190c9-22-3-41-27-41h-658c-25 0-37 19-28 41z m177-245c0-12-10-22-22-22h-149c-13 0-22 10-22 22v71c0 12 9 22 22 22h149c12 0 22-10 22-22v-71z m551 0c0-12-10-22-22-22h-149c-12 0-22 10-22 22v71c0 12 10 22 22 22h149c12 0 22-10 22-22v-71z m-394 559c0 0 1 0 0 1l-11 25c0 1 0 1-1 0l-11-25c-1-1 0-1 0-1h23z" horiz-adv-x="1000" />

<glyph glyph-name="wallet" unicode="&#xe839;" d="M762 487c-37 0-68-30-68-67v-45c0-37 31-67 68-67h156v179h-156z m44-123c-18 0-33 15-33 34s15 33 33 33c19 0 34-15 34-33s-15-34-34-34z m63 363h-754c-64 0-115-51-115-115v-557c0-45 37-82 82-82h754c45 0 82 37 82 82v220h-156c-55 0-100 45-100 100v45c0 55 45 100 100 100h156v60c0 36-29 65-65 65h-755c-9 0-16 8-16 17 0 9 7 16 16 16h755c54 0 98-44 98-98v-505c30 21 49 56 49 95v426c0 72-59 131-131 131z m-107-240c-37 0-68-30-68-67v-45c0-37 31-67 68-67h156v179h-156z m44-123c-18 0-33 15-33 34s15 33 33 33c19 0 34-15 34-33s-15-34-34-34z m-44 123c-37 0-68-30-68-67v-45c0-37 31-67 68-67h156v179h-156z m44-123c-18 0-33 15-33 34s15 33 33 33c19 0 34-15 34-33s-15-34-34-34z" horiz-adv-x="1000" />

<glyph glyph-name="ic_itinerary" unicode="&#xe83a;" d="M15-102c-3 0-6 1-9 3-4 3-6 7-6 12v795c0 7 5 13 12 15l323 79c4 1 9 0 13-3 3-3 6-7 6-12v-795c0-7-5-13-12-15l-323-79c-1 0-3 0-4 0z m15 798v-764l293 72v764l-293-72z m632-798c-2 0-3 0-4 0l-323 79c-7 2-12 8-12 15v795c0 5 2 9 6 12 4 3 9 4 13 3l323-79c7-2 12-8 12-15v-795c0-5-2-9-6-12-3-2-6-3-9-3z m-308 106l293-72v764l-293 72v-764z m308-106c-4 0-7 1-10 3-3 3-5 7-5 12v795c0 7 4 13 11 15l323 79c5 1 10 0 13-3 4-3 6-7 6-12v-795c0-7-5-13-11-15l-324-79c-1 0-2 0-3 0z m15 798v-764l293 72v764l-293-72z" horiz-adv-x="1000" />

<glyph glyph-name="ic_tour" unicode="&#xe83b;" d="M983 632l-2 3c-23 23-61 23-84 0l-90-91c-5-5-12-5-17 0l-126 116c-13 11-29 18-45 18h-188c-4 0-9-2-12-5l-159-151c-23-24-25-61-4-84 12-12 27-19 44-19h0c17 0 32 7 43 19l113 119h40l-262-293h-162c-38 0-70-29-72-65-1-20 6-38 19-52 13-13 31-21 50-21h241c5 0 10 2 13 5l124 132 103-108-31-201c-8-33 8-67 38-80 9-5 19-7 29-7 10 0 21 3 30 7 19 10 32 26 37 47l53 288c1 6 0 11-4 15l-143 143 113 114 80-79c22-23 60-23 82 0l149 148c11 11 17 26 17 41 0 16-6 30-17 41z m-190-6c57 0 103 46 103 103 0 57-46 104-103 104-57 0-104-47-104-104 0-57 47-103 104-103z" horiz-adv-x="1000" />

<glyph glyph-name="map-solid" unicode="&#xe83c;" d="M0 620v-676c0-22 22-37 43-29l270 123v750l-274-110a63 63 0 0 1-39-58z m375-582l375-126v751l-375 125v-750z m707 747l-269-122v-751l273 110a63 63 0 0 1 39 58v676c0 22-22 37-43 29z" horiz-adv-x="1125" />

<glyph glyph-name="ic_view_map" unicode="&#xe83d;" d="M563 850c-136 0-247-110-247-246 0-110 161-310 223-383 12-15 35-15 47 0 62 73 223 273 223 383 0 136-111 246-246 246z m0-328c-46 0-82 37-82 82s36 82 82 82 82-37 82-82-37-82-82-82z m-524-94a63 63 0 0 1-39-58v-489c0-22 22-37 43-29l270 123v455c-18 31-32 62-42 91l-232-93z m524-280c-28 0-54 12-72 33-38 45-79 97-116 150v-356l375-125v481c-37-53-78-105-116-150-18-21-44-33-71-33z m519 387l-269-122v-563l273 109a63 63 0 0 1 39 58v489c0 22-22 37-43 29z" horiz-adv-x="1125" />

<glyph glyph-name="ic_fight" unicode="&#xe83e;" d="M995 809c-4 4-11 5-16 2l-970-450c-6-3-9-8-9-14s3-11 8-13l275-135c5-3 11-2 15 1l267 200-209-216c-3-3-5-7-4-11l21-272c0-6 4-11 10-13 1-1 3-1 4-1 5 0 9 2 12 5l145 169 181-86c4-2 8-2 12 0 4 2 7 5 8 9l254 809c2 6 0 12-4 16z" horiz-adv-x="1000" />

<glyph glyph-name="ic_option_menu" unicode="&#xe83f;" d="M578 584c0 43-35 79-78 79s-78-36-78-79 35-78 78-78 78 35 78 78z m0-468c0 43-35 78-78 78s-78-35-78-78 35-78 78-78 78 35 78 78z m0 234c0 43-35 78-78 78s-78-35-78-78 35-78 78-78 78 35 78 78z" horiz-adv-x="1000" />

<glyph glyph-name="ic_menu_user" unicode="&#xe840;" d="M500 350c69 0 128 24 177 73 49 49 73 108 73 177 0 69-24 128-73 177-49 49-108 73-177 73s-128-24-177-73c-49-49-73-108-73-177 0-69 24-128 73-177 49-49 108-73 177-73z m456-264c-1 22-4 46-9 71-5 25-10 49-17 71-7 21-17 43-28 63-12 21-25 38-41 53-15 14-33 26-55 35-22 8-46 13-73 13-4 0-13-5-27-14-15-10-31-20-49-32-18-11-41-21-70-31-29-9-58-14-87-14-29 0-58 5-87 14-29 10-52 20-70 31-18 12-34 22-49 32-14 9-23 14-27 14-27 0-51-5-73-13-22-9-40-21-55-35-15-15-29-32-41-53-11-20-21-42-28-63-7-22-12-46-17-71-4-25-7-49-9-71-2-22-2-44-2-67 0-53 16-94 47-124 32-30 74-45 127-45h569c52 0 94 15 126 45 32 30 47 71 47 124 0 23 0 45-2 67z" horiz-adv-x="1000" />

<glyph glyph-name="ic_budget" unicode="&#xe842;" d="M821 361c-40 60-91 105-133 142-37 33-69 62-77 87 17 7 29 23 29 43 0 19-11 35-28 42l34 134c4 13 1 25-6 32-8 8-20 11-33 8 0-1-1-1-1-1 0 0-64-20-85-26-14-4-38-4-51 0-22 6-86 26-86 26-1 0-1 1-1 1-13 3-25 0-33-8-8-8-10-20-6-32 0-1 0-1 0-1l43-133c-16-7-27-23-27-42 0-20 12-36 29-43-8-25-40-54-77-87-41-37-93-82-133-142-47-70-70-145-70-230 0-76 31-147 87-198 60-54 143-83 241-83h126c98 0 182 29 241 83 56 51 87 122 87 198 0 85-23 160-70 230z m-290 255c0 0 0 0 0 0h-62c0 0 0 0 0 0h-63c-9 0-17 8-17 17 0 9 8 17 17 17 0 0 0 0 0 0 0 0 0 0 0 0h78c0 0 0 0 0 0 0 0 0 0 0 0h32c0 0 0 0 0 0 0 0 0 0 0 0h78c9 0 17-8 17-17s-8-17-17-17h-63z m-160 205c1 0 2 0 4-1 6-2 66-21 87-27 19-5 48-5 67 1 21 6 80 24 86 26 2 1 3 1 3 1 0-1 0-2 0-4 0-1 0-1 0-1l-35-137h-48l11 44c2 8-3 16-11 18-8 2-16-3-18-10l-13-52h-8l-13 52c-2 7-10 12-18 10-8-2-13-10-11-18l12-44h-49l-45 138c-1 2-1 3-1 4z m414-866c-55-49-131-76-222-76h-126c-90 0-167 27-221 76-50 46-77 108-77 176 0 178 111 278 192 350 44 39 80 71 88 106h29l-9-28c-2-8 2-16 9-18 2-1 3-1 5-1 6 0 12 4 14 10l12 37h42l12-37c2-6 8-10 14-10 2 0 3 0 5 1 7 2 12 10 9 18l-9 28h29c8-35 44-67 88-106 81-72 193-172 193-350 0-68-28-130-77-176z m-285 334c35 0 64-18 64-40 0-8 6-15 14-15s15 7 15 15c0 35-33 63-78 69v17c0 8-7 15-15 15-8 0-15-7-15-15v-17c-45-6-78-34-78-69 0-39 41-70 93-70 35 0 64-18 64-40s-29-40-64-40-64 18-64 40c0 8-6 15-14 15s-15-7-15-15c0-35 33-64 78-69v-17c0-8 7-15 15-15 8 0 15 7 15 15v17c45 5 78 34 78 69 0 39-41 70-93 70-34 0-64 18-64 40s30 40 64 40z m0 139c-129 0-234-105-234-234s105-234 234-234 234 105 234 234-105 234-234 234z m0-439c-113 0-205 92-205 205s92 205 205 205 205-92 205-205-92-205-205-205z" horiz-adv-x="1000" />

<glyph glyph-name="ic_car" unicode="&#xe845;" d="M984 773c-12 34-45 59-84 59l-645 0c-38 0-71-25-83-59l-122-350 0-467c0-32 26-58 59-58l58 0c33 0 59 26 59 58l0 58 704 0 0-58c0-32 26-58 58-58l59 0c32 0 59 26 59 58l0 467-122 350z m-717-626c-51 0-93 41-93 93 0 52 42 94 93 94 52 0 94-42 94-94 0-52-42-93-94-93z m621 0c-51 0-93 41-93 93 0 52 42 94 93 94 52 0 94-42 94-94 0-52-42-93-94-93z m-714 373l87 249 634 0 87-249-808 0z" horiz-adv-x="1154" />

<glyph glyph-name="ic_user_home" unicode="&#xe846;" d="M917 94l-159 79c-15 8-25 23-25 40v56c4 5 8 10 12 16 21 29 38 61 50 96 23 11 38 34 38 61v66c0 16-6 32-16 44v89c1 9 4 64-35 109-34 39-90 58-165 58s-131-19-165-58c-24-28-32-58-35-81-28 15-62 23-100 23-173 0-184-148-184-150v-77c-10-11-16-25-16-38v-58c0-18 8-35 22-46 13-52 47-91 60-105v-46c0-13-7-25-19-31l-111-70c-43-23-69-68-69-116v-63h233 34 733v67c0 57-32 109-83 135z m-684-132v-37h-200v30c0 36 20 69 53 87l111 70c22 12 36 35 36 60v60l-6 5c0 1-44 42-57 99l-2 7-6 4c-7 5-12 13-12 22v58c0 6 4 13 11 19l6 5 0 90c0 5 9 117 150 117 40 0 73-9 100-27v-79c-11-12-17-28-17-44v-66c0-5 1-10 2-15 0-2 1-4 2-6 1-3 1-5 3-8 0 0 0 0 0 0 4-9 10-17 18-23 0 0 0-1 0-1 1-4 2-8 3-11l2-5c0 0 0-1 1-2 0-2 1-4 1-5 1-3 2-6 4-10 0-1 1-2 1-4 2-3 3-6 4-10 1 0 1-1 1-2l1-2c1-1 1-2 2-3 1-4 3-7 5-10 0-1 0-1 0-2 1-2 2-4 3-6 2-4 4-7 6-10 1-1 1-3 2-4 3-4 5-8 7-12 1 0 1-1 2-2 4-6 7-11 10-15 1-1 2-2 2-3 1-1 1-1 1-2v-55c0-16-8-31-23-39l-44-24-7 1-3-6-94-52c-49-26-79-77-79-132z m734-37h-700v37c0 43 23 83 61 103l148 81c25 14 41 40 41 68v67 0l-4 4 0 1c0 0-1 1-3 3 0 0 0 0 0 1-1 1-2 2-3 4 0 0 0 0 0 0-3 3-6 8-9 13-1 0-1 0-1 1-1 2-3 5-5 8 0 0 0 0 0 1-4 6-8 13-12 21 0 0 0 0 0 0-2 4-4 9-6 13l0 0c-1 1-1 2-1 2h0c-1 2-2 5-3 7 0 1-1 1-1 2-1 2-2 5-3 7-1 5-3 9-4 14l-1 3c0 1-1 1-1 1-1 6-3 11-4 16l-1 7-6 4c-10 6-16 16-16 28v66c0 10 4 18 12 25l5 5v104 6l0 0c-1 12 0 49 27 80 27 31 74 47 140 47 65 0 112-16 139-47 33-37 28-84 28-84l-1-106 6-5c7-7 11-15 11-25v-66c0-15-9-28-24-32l-8-2-3-9c-11-34-27-66-47-95-5-7-10-13-14-18l-4-5v-68c0-30 16-56 43-70l159-79c40-20 65-60 65-105v-34z" horiz-adv-x="1000" />

<glyph glyph-name="ic_friend" unicode="&#xe847;" d="M604 626c46-29 78-78 84-135 19-8 40-13 62-13 81 0 147 65 147 146 0 81-66 147-147 147-80 0-145-65-146-145z m-97-300c81 0 147 66 147 147s-66 146-147 146c-81 0-146-65-146-146s65-147 146-147z m63-10h-125c-103 0-188-84-188-188v-152l1-2 10-4c99-31 185-41 256-41 138 0 218 40 223 42l9 5h1v152c0 104-84 188-187 188z m242 152h-123c-2-50-23-94-56-126 92-28 159-113 159-214v-47c122 5 193 39 197 42l10 4h1v153c0 103-84 188-188 188z m-562 9c29 0 55 9 78 23 7 47 32 88 68 116 0 3 1 5 1 8 0 81-66 147-147 147-81 0-147-66-147-147 0-81 66-147 147-147z m132-135c-33 31-54 76-56 125-5 0-9 1-14 1h-124c-104 0-188-85-188-188v-152l0-3 11-3c79-25 150-36 211-40v46c0 101 68 186 160 214z" horiz-adv-x="1000" />

<glyph glyph-name="ic_no_auth_2" unicode="&#xe848;" d="M854 204c-55 54-120 94-190 119 75 52 125 139 125 238 0 159-130 289-289 289s-289-130-289-289c0-99 50-186 125-238-70-25-135-65-190-119-94-95-146-220-146-354h78c0 233 189 422 422 422s422-189 422-422h78c0 134-52 259-146 354z m-354 146c-116 0-211 95-211 211s95 211 211 211c116 0 211-95 211-211s-95-211-211-211z" horiz-adv-x="1000" />

<glyph glyph-name="ic_menu_chat" unicode="&#xe849;" d="M926 756h-686c-41 0-74-34-74-74v-427c0-41 34-74 74-74h473l107-108c4-4 10-7 16-7 13 0 24 10 24 24v91h66c41 0 74 34 74 74v427c0 41-34 74-74 74z m-581-367c-38 0-69 31-69 69 0 37 31 68 69 68 38 0 69-31 69-68 0-38-31-69-69-69z m241 0c-38 0-69 31-69 69 0 37 31 68 69 68 37 0 68-31 68-68 0-38-31-69-68-69z m239 0c-37 0-68 31-68 69 0 37 31 68 68 68 38 0 69-31 69-68 0-38-31-69-69-69z m-701-135v145h-75c-27 0-49-22-49-48v-280c-1-29 21-51 49-51h43v-60c0-8 7-16 15-16 5 0 8 2 11 5l71 70h311c26 0 48 22 48 49v69h-308c-64 0-116 52-116 117z" horiz-adv-x="1000" />

<glyph glyph-name="ic_transaction" unicode="&#xe84a;" d="M865 110c-28 0-55 14-71 37l-42 62c-50-90-145-147-252-147-149 0-272 114-287 259h27c11 0 21 6 26 16 5 9 4 21-2 29l-42 62-64 92c-5 8-14 13-23 13-2 0-3 0-4 0-1-1-2-1-3-1-3-1-6-2-8-3-4-3-7-5-9-9l-106-154c-6-8-7-20-2-29 5-10 15-16 26-16h30c7-107 52-207 128-284 84-83 195-129 313-129s229 46 313 129c22 22 42 47 59 73-2 0-5 0-7 0z m-343 269h-44c-8 0-15 7-15 15v22c0 8 7 15 15 15h44c8 0 15-7 15-15 0-16 13-29 29-29 16 0 29 13 29 29 0 38-29 69-66 72v16c0 16-13 29-29 29-16 0-29-13-29-29v-16c-37-3-66-34-66-72v-22c0-40 33-73 73-73h44c8 0 15-7 15-15v-22c0-8-7-15-15-15h-44c-8 0-15 7-15 15 0 16-13 29-29 29-16 0-29-13-29-29 0-38 29-69 66-72v-16c0-16 13-29 29-29 16 0 29 13 29 29v16c37 3 66 34 66 72v22c0 40-33 73-73 73z m475-16c-5 10-15 16-26 16h-30c-6 107-51 207-128 284-84 83-195 129-313 129s-229-46-313-129c-22-22-42-47-58-73 2 0 4 0 6 0 28 0 55-14 71-37l42-62c50 90 145 148 252 148 149 0 273-115 287-260h-27c-11 0-21-6-26-16-5-9-4-20 2-29l42-61 64-93c1-2 3-4 4-5 6-5 12-8 19-8 10 0 19 5 24 13l38 55 68 99c6 9 7 20 2 29z" horiz-adv-x="1000" />

<glyph glyph-name="ic_menu_chat_2" unicode="&#xe84b;" d="M930 536h-28v-302c0-46-27-89-82-89h-536v-14c0-42 48-83 96-83h410l157-93-23 93h6c48 0 70 41 70 83v333c0 41-22 72-70 72z m-190 209h-622c-55 0-118-49-118-96v-377c0-43 53-75 105-79l-34-127 214 126h455c55 0 106 33 106 80v305 72c0 47-51 96-106 96z m-527-319c-31 0-56 25-56 56s25 57 56 57c31 0 56-26 56-57s-25-56-56-56z m210 0c-31 0-56 25-56 56s25 57 56 57 56-26 56-57-25-56-56-56z m210 0c-31 0-56 25-56 56s25 57 56 57c31 0 56-26 56-57s-25-56-56-56z" horiz-adv-x="1000" />

<glyph glyph-name="ic_support" unicode="&#xe84c;" d="M782 204c-39-55-103-90-176-90h-101c-35 0-65 22-76 53-14 5-28 10-41 17-29 14-54 33-77 56-146-32-256-163-256-319v-20c0-28 23-51 51-51h788c28 0 51 23 51 51v20c0 121-65 226-163 283z m-525 141c22 0 41 12 51 30 0-1 0-1 1-2 0 0 0-1 0-1 23-61 68-112 127-134 15 23 40 38 69 38h101c10 0 20 3 28 8 14 7 26 27 33 37 10 17 18 35 25 54 4-7 10-14 16-18v-25c0-57-46-102-102-102h-101c-19 0-35-16-35-35 0-19 16-35 35-35h101c95 0 172 77 172 172v25c14 10 23 27 23 46v104 41c0 19-10 36-24 47-12 142-131 255-277 255-146 0-265-113-277-255-14-11-24-28-24-47v-145c0-32 26-58 58-58z m243 436c108 0 197-83 207-188-7-5-12-12-16-20-33 85-106 145-191 145-87 0-159-62-191-145 0 0 0 0 0 0-4 8-9 15-16 20 10 105 99 188 207 188z" horiz-adv-x="1000" />

<glyph glyph-name="ic_contact" unicode="&#xe84d;" d="M478 337c64 0 79 52 79 95 0 44-35 79-79 79-43 0-79-35-79-79 0-43 21-95 79-95z m11-11h-11-11c-43 0-108-40-108-89 0-49-15-89 29-89h90 91c43 0 29 40 29 89s-65 89-109 89z m11 524c-276 0-500-224-500-500s224-500 500-500c276 0 500 224 500 500 0 276-224 500-500 500z m203-724v-34c0-19-15-35-34-35h-35-191-120c-38 0-69 31-69 69v435c0 39 31 70 69 70h120 191 35c19 0 34-16 34-35v-35h0v-435z m69 435v-435-34c0-19-15-35-34-35h-10c6 10 10 22 10 35v34 435 35c0 13-4 24-10 35h10c19 0 34-16 34-35v-35z" horiz-adv-x="1000" />

<glyph glyph-name="ic_gift" unicode="&#xe84e;" d="M63 319v-375c0-34 28-62 62-62h313v437h-375z m875 250h-198c14 10 26 20 35 28 50 51 50 134 0 184-49 50-135 49-184 0-27-27-99-138-89-212h-4c10 74-62 185-89 212-49 49-135 49-184 0-50-50-50-133 0-184 9-8 21-18 35-28h-197c-35 0-63-28-63-62v-94c0-17 14-31 31-31h407v125h125v-125h406c17 0 31 14 31 31v94c0 34-28 62-62 62z m-504 2c0 0-3-2-12-2-43 0-125 45-152 72-26 27-26 70 0 96 12 13 29 20 47 20 18 0 35-7 47-20 43-42 84-150 70-166z m144-2c-9 0-12 2-12 2-14 16 28 124 70 166 25 26 69 26 94 0 27-26 27-69 0-96-27-27-109-72-152-72z m-15-250v-437h312c35 0 63 28 63 62v375h-375z" horiz-adv-x="1000" />

<glyph glyph-name="ic_filter_outline" unicode="&#xe84f;" d="M997 794c-5 10-16 17-27 17h-940c-11 0-22-7-27-17-5-11-4-24 4-33l361-438v-404c0-10 6-20 14-25 5-3 11-5 16-5 5 0 10 1 14 3l203 101c10 5 17 15 17 27l0 303 361 438c8 9 9 22 4 33z m-419-440c-4-6-7-13-7-20l0-295-142-71v366c0 7-3 14-7 20l-327 396h810l-327-396z" horiz-adv-x="1000" />

<glyph glyph-name="ic_menu_home" unicode="&#xe851;" d="M125 100h750v83h-750v-83z m0 208h750v84h-750v-84z m0 292v-83h750v83h-750z" horiz-adv-x="1000" />

<glyph glyph-name="ic_following" unicode="&#xe852;" d="M876 88l-92 92c-7 6-18 6-24 0-7-7-7-18 0-25l62-62h-247c-9 0-17-8-17-17 0-10 8-18 17-18h247l-62-62c-7-7-7-18 0-24 3-4 7-5 12-5s9 1 12 5l92 91c6 7 6 18 0 25z m-450 276c55 0 109 34 152 95 38 54 61 120 61 178 0 118-96 213-213 213s-213-95-213-213c0-58 23-124 60-178 43-61 97-95 153-95z m0 451c98 0 178-80 178-178 0-50-21-111-54-158-36-51-81-80-124-80-43 0-89 29-124 80-34 47-54 108-54 158 0 98 80 178 178 178z m89-872c0 1 0 1 0 1-1 2-2 4-3 5-7 7-18 7-25 0-7-6-7-18 0-24 6-6 16-7 22-2 7 4 9 13 6 20 1 0 1 0 0 0z m204 358c-1 0-3 0-5 0-34 43-79 79-129 102-7 3-14 2-20-3-41-42-90-64-139-64-50 0-98 22-140 64-5 5-13 6-19 3-63-29-116-76-153-134-39-60-59-129-59-201v0c0-5 2-10 6-13 100-91 230-141 365-141 7 0 14 0 21 1 10 0 17 8 17 18 0 9-8 17-18 16-7 0-13 0-20 0-124 0-243 45-336 127 1 62 20 122 53 174 32 50 76 90 128 117 46-43 100-66 155-66 55 0 108 23 155 66 34-18 65-42 92-71-102-21-179-112-179-220 0-125 101-226 225-226 125 0 226 101 226 226 0 124-101 225-226 225z m0-416c-105 0-190 85-190 191 0 105 85 191 190 191 106 0 191-86 191-191 0-106-85-191-191-191z" horiz-adv-x="1000" />

<glyph glyph-name="ic_empty_message" unicode="&#xe853;" d="M811 592h-106v191c0 37-30 67-67 67h-446c-37 0-68-30-68-67v-866c0-37 31-67 68-67h446c37 0 67 30 67 67v218h106c36 0 65 29 65 64v329c0 35-29 64-65 64z m-468 209h143c5 0 8-3 8-8 0-4-3-8-8-8h-143c-4 0-8 4-8 8 0 5 4 8 8 8z m72-917c-19 0-34 15-34 33 0 19 15 34 34 34s34-15 34-34c0-18-16-33-34-33z m243 91h-487v768h487v-151h-278c-36 0-65-29-65-64v-329c0-35 29-64 65-64h39v-111l110 111h129v-160z m189 224c0-20-16-36-36-36h-294l-70-70v70h-67c-20 0-36 16-36 36v329c0 20 16 36 36 36h431c20 0 36-16 36-36v-329z m-71 263c0-10-8-18-17-18h-326c-9 0-17 8-17 18 0 9 8 17 17 17h326c9 0 17-8 17-17z m0-96c0-10-8-18-17-18h-326c-9 0-17 8-17 18 0 10 8 18 17 18h326c9 0 17-8 17-18z m0-96c0-10-8-18-17-18h-326c-9 0-17 8-17 18 0 10 8 18 17 18h326c9 0 17-8 17-18z" horiz-adv-x="1000" />

<glyph glyph-name="ic_add_follow" unicode="&#xe854;" d="M426 364c55 0 109 34 152 95 38 54 61 120 61 178 0 118-96 213-213 213-118 0-213-95-213-213 0-58 23-124 60-178 43-61 97-95 153-95z m0 451c98 0 178-80 178-178 0-50-21-111-54-158-36-51-81-80-124-80-43 0-89 29-124 80-34 47-54 108-54 158 0 98 80 178 178 178z m83-864c0 0 0 0 0 0 0 1 0 0 0 0-7 5-16 4-22-2-5-5-6-12-4-19 3-6 9-10 16-11 7 0 14 5 17 12 2 7 0 16-7 20z m210 350c-1 0-3 0-5 0-34 43-79 79-129 102-7 3-14 2-20-3-41-42-90-64-139-64-50 0-98 22-140 64-5 5-13 6-19 3-63-29-116-76-153-134-39-60-59-129-59-201v0c0-5 2-10 6-13 100-91 230-141 365-141 7 0 14 0 21 1 10 0 17 8 17 18 0 9-8 17-18 16-7 0-13 0-20 0-124 0-243 45-336 127 1 62 20 122 53 174 32 50 76 90 128 117 46-43 100-66 155-66 55 0 108 23 155 66 34-18 65-42 92-71-102-21-179-112-179-220 0-125 101-226 225-226 125 0 226 101 226 226 0 124-101 225-226 225z m0-416c-105 0-190 85-190 191 0 105 85 191 190 191s191-86 191-191c0-106-85-191-191-191z m144 208h-126v127c0 9-8 17-18 17s-17-8-17-17v-127h-127c-9 0-17-8-17-17 0-10 8-18 17-18h127v-126c0-10 8-18 17-18s18 8 18 18v126h126c10 0 18 8 18 18 0 9-8 17-18 17z" horiz-adv-x="1000" />

<glyph glyph-name="ic_remove_follow" unicode="&#xe855;" d="M426 364c55 0 109 34 152 95 38 54 61 120 61 178 0 118-96 213-213 213s-213-95-213-213c0-58 23-124 60-178 43-61 97-95 153-95z m0 451c98 0 178-80 178-178 0-50-21-111-54-158-36-51-81-80-124-80-43 0-89 29-124 80-34 47-54 108-54 158 0 98 80 178 178 178z m89-872c0 1 0 1 0 1-1 2-2 4-3 5-7 7-18 7-25 0-1-1-1-2-2-3-5-6-4-16 2-21 6-6 16-7 22-2 7 4 9 13 6 20 1 0 1 0 0 0z m204 358c-1 0-3 0-5 0-34 43-79 79-129 102-7 3-14 2-20-3-41-42-90-64-139-64-50 0-98 22-140 64-5 5-13 6-19 3-63-29-116-76-153-134-39-60-59-129-59-201v0c0-5 2-10 6-13 100-91 230-141 365-141 7 0 14 0 21 1 10 0 17 8 17 18 0 9-8 17-18 16-7 0-13 0-20 0-124 0-243 45-336 127 1 62 20 122 53 174 32 50 76 90 128 117 46-43 100-66 155-66 55 0 108 23 155 66 34-18 65-42 92-71-102-21-179-112-179-220 0-125 101-226 225-226 125 0 226 101 226 226 0 124-101 225-226 225z m0-416c-105 0-190 85-190 191 0 105 85 191 190 191 106 0 191-86 191-191 0-106-85-191-191-191z m144 208h-288c-9 0-17-8-17-17 0-10 8-18 17-18h288c10 0 18 8 18 18 0 9-8 17-18 17z" horiz-adv-x="1000" />

<glyph glyph-name="ic_chat_search" unicode="&#xe856;" d="M167 426h216c10 0 17 7 17 16s-7 17-17 17h-216c-10 0-17-8-17-17s7-16 17-16z m433-67h-433c-10 0-17-8-17-17s7-16 17-16h433c9 0 17 7 17 16s-8 17-17 17z m0-100h-433c-10 0-17-8-17-17s7-16 17-16h433c9 0 17 7 17 16s-8 17-17 17z m301 549l-569 1c-54 0-99-44-99-99v-85l-134-1c-55 0-99-44-99-98v-353c0-54 44-99 99-99h101v-166c0-7 4-13 11-16 2-1 4-1 6-1 4 0 9 2 12 5l162 178 277 2c54 0 99 44 99 98v2l87-96c4-4 8-6 13-6 2 0 4 1 6 2 6 2 10 8 10 15v167h18c55 0 99 44 99 99v352c0 54-44 99-99 99z m-168-634c0-36-29-65-65-65l-285-1c-4 0-9-2-12-6l-138-151v140c0 9-7 17-16 17h-118c-36 0-66 29-66 65v353c0 36 30 65 66 65l151 0c0 0 0 0 0 0 0 0 0 0 0 0l418 1c36 0 65-29 65-65v-308-45z m234 183c0-37-30-66-66-66h-34c-9 0-17-7-17-17v-140l-83 92v301c0 54-45 99-99 99l-401-1v85c0 36 29 66 65 66l569-2c0 0 0 0 0 0 36 0 66-29 66-65v-352z" horiz-adv-x="1000" />

<glyph glyph-name="ic_bus" unicode="&#xe857;" d="M115-65l0 47 763 0 0-47-42 0 0-75-130 0 0 75-408 0 0-75-131 0 0 75-52 0z m0 764c0 0 80 100 383 89 303-11 380-89 380-89l0-685-763 0 0 685z m122 0c-17 0-31-15-31-33 0-17 14-32 31-32 17 0 31 15 31 32 0 18-14 33-31 33z m-63-124l0-291 293 0 0 291-293 0z m59-495c36 0 65 30 65 67 0 37-29 67-65 67-37 0-66-30-66-67 0-37 29-67 66-67z m412-30l0 35-293 0 0-35 293 0z m0 66l0 36-293 0 0-36 293 0z m0 68l0 36-293 0 0-36 293 0z m191-37c0 37-29 67-65 67-36 0-65-30-65-67 0-37 29-67 65-67 36 0 65 30 65 67z m-83 559c-18 0-32-15-32-32 0-18 14-33 32-33 17 0 31 15 31 33 0 17-14 32-31 32z m-237-131l0-291 292 0 0 291-292 0z m-516-46l94 0 0-129-94 0 0 129z m906 7l94 0 0-129-94 0 0 129z" horiz-adv-x="1000" />

<glyph glyph-name="ic_distance" unicode="&#xe858;" d="M1344 395l-529 0c-58 0-105 47-105 105 0 57 47 104 105 104l116 0c22-61 80-104 149-104 87 0 158 70 158 157 0 87-71 157-158 157-69 0-127-44-149-105l-116 0c-116 0-211-94-211-209 0-116 95-210 211-210l529 0c58 0 106-47 106-105 0-58-48-105-106-105l-961 0c-22 61-80 105-149 105-88 0-159-71-159-158 0-87 71-157 159-157 69 0 127 44 149 105l961 0c116 0 211 94 211 210 0 115-95 210-211 210z m-264 314c29 0 52-23 52-52 0-29-23-53-52-53-30 0-53 24-53 53 0 29 23 52 53 52z m-846-734c-29 0-53 23-53 52 0 29 24 53 53 53 29 0 53-24 53-53 0-29-24-52-53-52z" horiz-adv-x="1583" />

<glyph glyph-name="ic_user" unicode="&#xe859;" d="M503 209c-179 0-324 144-324 321 0 177 145 320 324 320 179 0 323-143 323-320 0-177-144-321-323-321z m0 86c131 0 237 105 237 235 0 129-106 234-237 234-131 0-237-105-237-234 0-130 106-235 237-235z m-357-146l708 0c81 0 146-65 146-146 0-80-65-145-146-145l-708 0c-81 0-146 65-146 145 0 81 65 146 146 146z m14-84c-36 0-66-29-66-66 0-36 30-65 66-65l690 0c36 0 65 29 65 65 0 37-29 66-65 66l-690 0z" horiz-adv-x="1000" />

<glyph glyph-name="ic_maps" unicode="&#xe85a;" d="M673 440l-178 82c-7 2-15 2-22 0l-64-19 0 42c65 19 112 79 112 149 0 86-70 156-157 156-86 0-157-70-157-156 0-70 48-130 112-149l0-65-82-33-181 107c-13 3-28 1-39-8-11-8-17-21-17-35l0-467c0-21 14-39 34-44l192-110c7-1 14-1 22 0l236 76 167-79c13-4 28-1 38 8 11 8 18 21 18 35l0 467c0 21-14 38-34 43z m-376 254c0 37 30 67 67 67 37 0 67-30 67-67 0-37-30-66-67-66-37 0-67 29-67 66z m341-714l-144 82c-8 2-15 2-22 0l-228-82-173 96 0 376 162-94c7-2 14-2 22 0l64 30 0-143c0-24 20-44 45-44 25 0 45 20 45 44l0 166 74 29 155-85 0-375z" horiz-adv-x="741" />

<glyph glyph-name="ic_heart_active" unicode="&#xe85b;" d="M998 538c-14 160-128 277-270 277-95 0-182-51-231-133-48 83-131 133-225 133-142 0-256-117-270-277-1-7-6-45 8-106 21-87 69-167 139-231l348-316 354 316c70 64 118 143 139 231 14 61 10 99 8 106z" horiz-adv-x="1000" />

<glyph glyph-name="ic_location_home" unicode="&#xe85c;" d="M500 311c-94 0-171 76-171 171s77 171 171 171 171-77 171-171-77-171-171-171z m0 312c-78 0-141-64-141-141s63-141 141-141 141 63 141 141-63 141-141 141z m0-773c-4 0-9 2-11 5-15 18-357 429-357 627 0 203 165 368 368 368s368-165 368-368c0-198-342-609-356-627-3-3-8-5-12-5z m0 970c-186 0-338-152-338-338 0-168 278-519 338-593 61 74 338 425 338 593 0 186-152 338-338 338z" horiz-adv-x="1000" />

<glyph glyph-name="ic_liberzy" unicode="&#xe85d;" d="M771 462c0-311-348-599-348-599-10-9-24-13-37-13-14 0-27 4-37 13 0 0-349 288-349 599 0 214 173 388 386 388 213 0 385-174 385-388l-549-393m178 181c-110 0-200 90-200 200 0 110 90 200 200 200 110 0 200-90 200-200 0-110-90-200-200-200m13 514l0-312c0-25 8-41 24-46 12-3 32-5 60-5l0-96c-9-1-19-1-28-1-81 0-134 29-159 86-7 18-11 34-12 48 0 6-1 12-1 18l0 290c-107-42-183-146-183-267 0-158 128-286 286-286 158 0 286 128 286 286 0 153-121 279-273 285m-127-324c1-14 5-30 12-47 26-57 79-86 160-86 9 0 18 0 28 1l0 96c-28 0-48 1-60 5-17 5-25 20-25 45l0 310c-4 0-8 0-12 0-37 0-71-6-103-19l0-287c0-6 0-12 0-18m263 118c5 4 12 6 23 6 10 0 17-2 21-6 5-3 7-10 7-20 0-10-2-17-7-21-4-4-11-6-21-6-11 0-18 2-23 6-4 4-6 11-6 21 0 10 2 17 6 20z m50-251l0 184-55 0 0-184 55 0z" horiz-adv-x="771" />

<glyph glyph-name="calendar" unicode="&#xe85e;" d="M691 300l-247 0 0-250 247 0 0 250z m-49 550l0-100-395 0 0 100-99 0 0-100-49 0c-55 0-98-45-98-100l-1-700c0-55 44-100 99-100l691 0c54 0 99 45 99 100l0 700c0 55-45 100-99 100l-49 0 0 100-99 0z m148-900l-691 0 0 550 691 0 0-550z" horiz-adv-x="889" />

<glyph glyph-name="coin" unicode="&#xe85f;" d="M500-150c-276 0-500 224-500 500 0 132 51 253 135 342 91 97 221 158 365 158 276 0 500-224 500-500 0-276-224-500-500-500z m0 106c217 0 394 177 394 394 0 217-177 394-394 394-113 0-215-48-287-125-66-70-106-165-106-269 0-217 176-394 393-394z m-174 196c4 16 8 33 14 49 6 19 11 22 28 13 30-16 61-25 94-29 21-2 42 0 62 8 37 16 42 59 11 85-10 9-23 15-35 20-32 14-66 25-96 44-49 29-81 70-77 130 4 68 43 110 105 133 25 9 26 9 26 35 0 10 0 19 0 28 0 20 4 24 24 24 6 1 12 0 19 0 43 0 43 0 43-43 0-30 0-30 31-35 23-3 45-10 66-20 12-5 16-13 13-26-5-18-10-37-16-55-6-18-11-20-28-12-34 16-69 23-106 21-9 0-19-2-28-6-32-13-37-49-10-71 14-11 29-19 46-26 28-12 56-23 83-38 86-47 109-155 49-228-22-27-50-44-83-54-15-4-21-11-21-26 1-15 0-30 0-45 0-13-6-20-19-20-16-1-32-1-48 0-14 0-20 8-20 21 0 11-1 22-1 33 0 24-1 25-24 28-29 5-58 11-84 25-22 10-24 15-18 37z" horiz-adv-x="1000" />

<glyph glyph-name="calendar-with-spring-binder-and-date-blocks" unicode="&#xe860;" d="M943 686c-14 14-31 21-50 21h-72v54c0 24-8 45-26 63-17 17-38 26-63 26h-36c-24 0-45-9-63-26-17-18-26-39-26-63v-54h-214v54c0 24-9 45-26 63-18 17-39 26-63 26h-36c-25 0-46-9-63-26-18-18-26-39-26-63v-54h-72c-19 0-36-7-50-21-14-14-21-31-21-50v-715c0-19 7-36 21-50 14-14 31-21 50-21h786c19 0 36 7 50 21 14 14 21 31 21 50v715c0 19-7 36-21 50z m-675-765h-161v161h161v-161z m0 197h-161v178h161v-178z m0 214h-161v161h161v-161z m-13 255c-3 4-5 8-5 13v161c0 5 2 9 5 12 4 4 8 6 13 6h36c4 0 9-2 12-6 4-3 5-7 5-12v-161c0-5-1-9-5-13-3-3-8-5-12-5h-36c-5 0-9 2-13 5z m227-666h-178v161h178v-161z m0 197h-178v178h178v-178z m0 214h-178v161h178v-161z m214-411h-178v161h178v-161z m0 197h-178v178h178v-178z m0 214h-178v161h178v-161z m-12 255c-4 4-5 8-5 13v161c0 5 1 9 5 12 3 4 8 6 12 6h36c5 0 9-2 13-6 3-3 5-7 5-12v-161c0-5-2-9-5-13-4-3-8-5-13-5h-36c-4 0-9 2-12 5z m209-666h-161v161h161v-161z m0 197h-161v178h161v-178z m0 214h-161v161h161v-161z" horiz-adv-x="1000" />

<glyph glyph-name="ic_reward_points" unicode="&#xe861;" d="M500 100c206 0 375 168 375 375s-169 375-375 375-375-168-375-375 168-375 375-375z m83 417c0 46 37 83 83 83 46 0 84-37 84-83v-84c0-46-38-83-84-83-46 0-83 37-83 83v84z m-208 0c0 46 37 83 83 83 46 0 83-37 83-83v-84c0-46-37-83-83-83-46 0-83 37-83 83v84z m-119 35l41 42c6 6 15 8 23 4 8-3 13-10 13-19v-208c0-12-9-21-21-21s-21 9-21 21v158l-6-6c-8-8-21-8-29 0-8 8-8 21 0 29z m410-160c23 0 42 18 42 41v84c0 23-19 41-42 41s-41-18-41-41v-84c0-23 18-41 41-41z m205-509l-92 248c-3 6-8 11-14 12-6 2-13 1-18-3-70-52-154-80-241-81-1 0-2-1-4-1-1 0-1 0-2 0-90 0-175 29-247 82-6 4-13 5-19 3-6-1-11-6-13-12l-95-253c-3-8-1-17 6-23 3-3 8-5 13-5 4 0 7 1 10 2l156 78 115-77c5-3 12-4 18-2 6 2 10 7 13 12l45 122 40-121c2-6 7-11 13-13 6-2 13-1 19 2l115 77 155-78c3-1 7-2 10-2 0 0 0 0 1 0 11 0 20 9 20 21 0 4-1 9-4 12z m-413 509c23 0 42 18 42 41v84c0 23-19 41-42 41s-42-18-42-41v-84c0-23 19-41 42-41z" horiz-adv-x="1000" />

<glyph glyph-name="ic_reward_points_2" unicode="&#xe862;" d="M458 392c23 0 42 18 42 41v84c0 23-19 41-42 41-23 0-42-18-42-41v-84c0-23 19-41 42-41z m208 0c23 0 42 18 42 41v84c0 23-19 41-42 41-23 0-41-18-41-41v-84c0-23 18-41 41-41z m205-508l-102 247c-3 7-9 12-16 13-8 1-15-2-19-7-8-10-16-17-26-23-28-16-65-13-99-5-7 2-16-2-21-6-17-16-44-42-83-44-1 0-2-1-3-1-1 0-2 0-2 0-42 0-70 27-90 46-5 5-15 6-22 4-29-6-69-10-97 6-9 6-18 13-25 23-5 5-13 8-20 7-7-1-13-6-16-13l-104-252c-3-8-1-18 5-23 4-4 9-6 14-6 4 0 7 1 10 2l156 78 115-77c5-3 12-4 18-2 6 2 10 7 13 12l45 122 40-121c2-6 7-11 13-13 7-2 13-1 19 2l115 77 155-78c3-1 7-2 10-2h0c10 0 21 9 21 21 0 5-1 9-4 13z m-693 505c2-8-1-22-4-35-5-21-11-46 1-66 12-21 36-29 57-35 13-4 26-8 32-14 6-5 10-18 13-31 7-21 14-46 35-58 18-10 43-6 67-1 13 3 27 6 34 4 8-2 18-12 27-20 16-15 35-33 60-33s43 18 59 33c9 8 20 18 27 20 7 2 21-1 35-4 23-5 49-9 66 1 21 12 28 36 35 58 4 13 8 26 13 31s19 10 32 14c21 6 45 14 57 34 12 21 7 46 2 67-3 13-6 27-4 35 2 7 11 17 20 26 15 17 33 35 33 60 0 25-18 43-33 60-9 9-18 19-20 26-2 8 1 22 4 35 5 22 10 46-2 67-12 21-36 28-57 34-13 4-26 8-32 14-5 5-9 19-13 31-7 22-14 46-35 58-17 10-43 7-66 1-14-3-28-6-35-4-7 2-18 12-27 20-16 16-35 33-59 33-25 0-44-17-60-33-9-8-19-18-27-20-7-2-21 1-34 4-24 6-49 9-67-1-21-12-28-36-35-58-3-12-7-26-13-31s-19-10-32-14c-21-6-45-13-57-34-12-21-6-45-1-67 3-13 6-27 4-35-2-7-12-17-21-26-15-17-32-35-32-60 0-25 17-43 32-60 9-9 19-19 21-26z m405 128c0 46 37 83 83 83 46 0 84-37 84-83v-84c0-46-38-83-84-83-46 0-83 37-83 83v84z m-208 0c0 46 37 83 83 83 46 0 83-37 83-83v-84c0-46-37-83-83-83-46 0-83 37-83 83v84z m-119 35l41 42c6 6 15 8 23 4 8-3 13-10 13-19v-208c0-12-9-21-21-21s-21 9-21 21v158l-6-6c-8-8-21-8-29 0-8 8-8 21 0 29z" horiz-adv-x="1000" />

<glyph glyph-name="ic_coin" unicode="&#xe863;" d="M500 850c-276 0-500-224-500-500s224-500 500-500c276 0 500 224 500 500s-224 500-500 500z m136-693c-24-28-60-44-106-49v-70h-59v70c-78 8-126 53-144 135l91 24c9-52 37-78 85-78 22 0 38 6 49 17s16 24 16 40c0 16-6 28-16 37-11 8-34 19-70 31-33 12-58 23-77 34-18 11-33 26-44 46-12 20-17 43-17 70 0 34 10 65 30 93 21 28 53 45 97 51v55h59v-55c66-8 109-45 128-112l-81-34c-16 46-41 69-74 69-17 0-30-5-40-15-10-11-15-23-15-38 0-15 4-26 14-34 10-8 31-18 63-29 35-13 63-25 83-37 20-11 35-27 47-47 12-20 18-44 18-71 0-41-12-75-37-103z" horiz-adv-x="1000" />

<glyph glyph-name="ic_expand" unicode="&#xe864;" d="M500-150c-276 0-500 224-500 500 0 276 224 500 500 500 276 0 500-224 500-500 0-276-224-500-500-500z m0 943c-244 0-443-199-443-443s199-443 443-443c244 0 443 199 443 443s-199 443-443 443z m197-471h-394c-16 0-29 12-29 28 0 16 13 29 29 29h394c16 0 29-13 29-29 0-16-13-28-29-28z m-197-198c-16 0-29 13-29 29v394c0 16 13 29 29 29 16 0 29-13 29-29v-394c0-16-13-29-29-29z" horiz-adv-x="1000" />

<glyph glyph-name="ic_collapse" unicode="&#xe865;" d="M500 850c-276 0-499-223-499-499s223-501 499-501 499 224 499 499-223 501-499 501z m0-952c-248 0-451 203-451 451s203 451 451 451 451-202 451-451-203-451-451-451z m222 446c0-13-10-23-23-23h-392c-13 0-24 10-24 23s11 24 24 24h392c13 0 23-11 23-24z" horiz-adv-x="1000" />

<glyph glyph-name="ic_group_chat" unicode="&#xe869;" d="M200 550c37 0 68 13 94 39 26 26 39 58 39 94 0 37-13 69-39 95-26 26-57 39-94 39-37 0-68-13-94-39-26-26-39-58-39-95 0-36 13-68 39-94 26-26 57-39 94-39z m159-208c39-39 86-59 141-59 55 0 102 20 141 59 40 39 59 86 59 141 0 56-19 103-59 142-39 39-86 58-141 58-55 0-102-19-141-58-39-39-59-86-59-142s20-102 59-141z m441 208c37 0 68 13 94 39 26 26 39 58 39 94 0 37-13 69-39 95-26 26-57 39-94 39-37 0-68-13-94-39-26-26-39-58-39-95 0-36 13-68 39-94 26-26 57-39 94-39z m135 0c-2 0-9-4-22-11-13-7-30-15-51-22-21-7-41-11-62-11-23 0-46 4-69 12 2-13 2-25 2-35 0-48-14-92-42-133 56-2 102-24 138-67h70c28 0 52 7 72 21 19 15 29 35 29 62 0 123-21 184-65 184z m-77-421c-4 20-9 39-14 56-6 18-13 35-23 51-9 17-20 31-32 42-12 12-27 21-44 28-18 7-37 11-58 11-4 0-11-4-23-11-11-8-24-16-38-25-14-10-32-18-56-25-23-8-46-12-70-12-24 0-47 4-70 12-24 7-42 15-56 25-14 9-27 17-38 25-11 7-19 11-22 11-22 0-41-4-58-11-18-7-33-16-45-28-12-11-23-25-32-42-10-16-17-33-23-51-5-17-10-36-14-56-3-20-6-39-7-57-1-17-2-35-2-54 0-41 13-74 38-99 26-24 59-36 101-36h456c42 0 75 12 101 36 25 25 38 58 38 99 0 19-1 37-2 54-1 18-4 37-7 57z m-549 221c-28 41-42 85-42 133 0 10 1 22 2 35-23-8-46-12-69-12-20 0-41 4-62 11-21 7-38 15-51 22-13 7-20 11-22 11-43 0-65-61-65-184 0-27 10-47 29-62 20-14 44-21 72-21h70c36 43 82 65 138 67z" horiz-adv-x="1000" />

<glyph glyph-name="ic_copy" unicode="&#xe86a;" d="M598 500l-155 155v-86c0-38 31-69 69-69z m0 0m-201 69v118h-327c-38 0-69-31-69-69v-700c0-39 31-69 69-69h491c38 0 68 30 68 69v536h-117c-64 0-115 52-115 115z m-280-208h233c13 0 23-11 23-23 0-13-10-23-23-23h-233c-13 0-23 10-23 23 0 12 10 23 23 23z m419-372h-419c-13 0-23 10-23 23 0 12 10 23 23 23h419c13 0 23-11 23-23 0-13-10-23-23-23z m23 186c0-13-10-23-23-23h-419c-13 0-23 10-23 23 0 12 10 23 23 23h419c13 0 23-11 23-23z m0 0m220 488h86l-155 155v-86c1-38 31-69 69-69z m0 0m0-46c-63 0-115 52-115 115v118h-303c-39 0-69-31-69-69v-48h128c6 0 12-3 16-7l1 0 232-232c4-4 7-10 7-16v-443h152c38 0 69 31 69 69v513z m25-465h-70c-13 0-23 10-23 23 0 12 10 23 23 23h70c13 0 23-11 23-23 0-13-10-23-23-23z m0 163h-70c-13 0-23 10-23 23 0 12 10 23 23 23h70c13 0 23-11 23-23 0-13-10-23-23-23z m0 0" horiz-adv-x="1000" />

<glyph glyph-name="ic_setting_rating" unicode="&#xe86b;" d="M978 395c20 19 27 47 18 73-8 27-30 45-57 49l-243 35c-10 2-19 8-23 18l-109 219c-12 25-36 40-64 40-27 0-52-15-64-40l-109-219c-4-10-13-16-23-18l-242-35c-28-4-50-22-58-49-9-26-2-54 18-73l175-171c7-7 11-18 9-28l-41-241c-4-21 2-42 15-58 22-26 59-33 89-18l216 114c9 5 21 5 30 0l216-114c11-5 22-8 34-8 21 0 41 9 55 26 13 16 19 37 15 58l-41 241c-2 10 2 21 9 28l175 171z" horiz-adv-x="1000" />

<glyph glyph-name="ic_setting_about_us" unicode="&#xe86c;" d="M500 850c-276 0-500-224-500-500 0-276 224-500 500-500s500 224 500 500c0 276-224 500-500 500z m0-250c35 0 63-28 63-62 0-35-28-63-63-63s-62 28-62 63c0 34 28 62 62 62z m94-500h-188c-17 0-31 14-31 31 0 18 14 32 31 32h32v187h-32c-17 0-31 14-31 31 0 18 14 32 31 32h125c18 0 32-14 32-32v-218h31c17 0 31-14 31-32 0-17-14-31-31-31z" horiz-adv-x="1000" />

<glyph glyph-name="ic_setting_website" unicode="&#xe86d;" d="M462 579l-3-7h-13v-6h3c0 0 0-2 1-4l8 1 5 3 1 6 7 1 2 5-6 2-5-1z m538-224c0 15-1 29-2 44-5 47-16 93-33 136-2 3-3 6-4 9-23 54-55 103-94 145-3 3-5 6-8 8-7 8-15 16-23 23-89 81-207 130-336 130-130 0-249-50-338-132-21-20-40-40-58-63-65-84-104-190-104-305 0-276 224-500 500-500 194 0 362 111 445 273 18 35 32 71 41 110 2 10 4 20 6 30 5 28 8 57 8 87 0 2 0 3 0 5z m-94 200l3 3c4-7 7-15 10-22l-4 0-9-1v20z m-72 87l0 23c8-9 15-17 22-26l-9-14-31 1-2 6 20 10z m-604 56v1h10l1 3h17v-7l-5-6h-23l0 9 0 0z m16-23c0 0 10 2 11 2s0-10 0-10l-22-1-5 5 16 4z m692-198h-37l-22 17-24-3v-14h-7l-8 6-41 10v26l-51-4-16-8h-21l-10 1-24-14v-26l-51-37 4-15h10l-2-15-8-3 0-39 44-50h19l1 3h34l10 10h20l10-11 29-3-3-39 32-56-17-33 1-15 13-13v-37l18-24v-30h15c-84-104-213-170-356-170-253 0-459 206-459 459 0 64 13 124 37 180v14l16 20c6 11 12 21 19 31l0-8-19-23c-6-11-11-23-16-34v-26l19-10v-36l18-31 15-2 2 10-18 27-3 27h10l5-27 25-37-7-12 17-25 40-10v7l16-3-2-11 13-2 19-6 28-31 35-3 3-28-24-17-1-26-4-15 35-44 3-15c0 0 12-3 14-3 2 0 28-20 28-20v-79l10-2-7-37 16-21-3-36 21-37 28-24 27-1 3 9-20 17 1 9 3 10 1 10-14 1-6 8 11 11 1 8-12 4 1 8 18 2 27 13 9 17 29 37-7 28 9 16 26-1 18 14 6 55 19 25 4 16-18 6-12 19-41 1-32 12-1 23-11 18-29 1-16 26-15 7-1-8-27-1-10 14-28 5-24-27-36 7-3 41-27 5 11 20-3 11-35-23-22 3-8 17 5 18 12 22 28 14 54 0 0-16 19-9-1 28 14 14 28 19 2 13 28 29 30 17-2 2 20 19 8-2 3-4 8 8 2 1-9 1-8 3v8l4 4h10l5-2 4-8 4 1v1l2-1 14 2 2 7 8-2v-7l-7-5h0l1-9 25-7c0 0 0-1 0-1l6 1 0 11-20 9-1 5 17 6 1 16-18 11-1 27-24-12h-9l2 20-32 8-14-10v-31l-24-8-10-20-10-2v26l-23 3-12 8-4 17 41 23 20 7 2-14 11 1 1 6 11 2 0 2-5 3-1 7 15 1 8 9 1 1 0 0 2 2 31 4 13-11-35-19 44-10 6 15h20l7 12-14 4v16l-43 19-30-3-17-9 1-21-17 2-3 12 17 16-31 1-8-3-4-10 11-2-2-11-19-1-4-8-28-1c0 0 0 16-2 16-1 0 22 1 22 1l17 16-9 5-12-12-20 1-13 17h-25l-28-21h25l3-7-7-6 28-1 4-9-31 1-2 7-19 5-10 5-24 0c76 55 169 88 270 88 116 0 222-43 303-115l-5-9-22-9-9-9 2-12 11-1 7-17 19 8 3-22h-6l-15 2-17-3-17-23-24-4-3-20 10-3-3-13-24 5-21-5-5-12 4-25 13-6 21 0 14 2 5 11 22 29 15-3 15 13 2-10 36-24-4-6-16 1 6-9 10-2 11 5 0 14 5 2-4 5-24 13-6 18h20l6-7 17-14 1-18 18-19 6 26 13 7 2-22 12-13 24 1c4-12 9-24 12-37l-2-2z m-665 146l12 6 11-3-4-15-12-3-7 15z m64-34v-10h-28l-10 3 2 7 14 5h18v-5h4z m12-14v-9l-7-4-8-2c0 0 0 14 0 15h15z m-8 4v11l10-9-10-2z m5-22v-9l-7-6h-14l2 10 7 0 1 4 11 1z m-37 18h16l-20-27-8 5 2 11 10 11z m62-15v-9h-14l-4 6v8h1l17-5z m-13 12l4 5 7-5-5-4-6 4z m587-118l2 2c0-3 1-6 1-8l-3 6z m-867 90v-14c5 11 10 23 16 34l-16-20z" horiz-adv-x="1000" />

<glyph glyph-name="ic_setting_language" unicode="&#xe86f;" d="M745 348c13-34 29-61 48-85 19 24 37 51 50 85h-98z m167 324h-364l76-608c2-25-5-49-22-67l-128-147h438c49 0 88 39 88 88v644c0 49-39 90-88 90z m0-324h-8c-16-53-43-95-70-128 21-20 44-36 67-54 13-10 15-29 5-41-10-13-29-15-41-5-25 20-49 36-72 58-23-22-45-38-70-58-12-10-31-8-41 5-10 12-8 31 5 41 23 18 44 34 65 54-27 33-52 75-68 128h-8c-16 0-29 13-29 29s13 30 29 30h88v29c0 16 13 29 29 29 16 0 29-13 29-29v-29h90c16 0 29-13 29-30s-13-29-29-29z m-435 425c-6 44-43 77-87 77h-302c-49 0-88-39-88-88v-648c0-49 39-88 88-88 175 0 301 0 462 0 9 10 16 16 16 28 0 4-89 716-89 719z m-118-483c-15-3-31 7-34 23l-19 94h-83l-18-94c-4-16-19-26-35-23-16 3-26 19-23 35l59 293c2 13 14 23 28 23h61c14 0 26-10 29-23l58-293c3-16-7-32-23-35z m-17-323l5-40c4-27 22-54 51-68 56 61 22 24 98 108h-154z" horiz-adv-x="1000" />

<glyph glyph-name="ic_setting_feedback" unicode="&#xe870;" d="M500 643c-113 0-205-92-205-205s92-205 205-205 205 92 205 205-92 205-205 205z m-88-117c16 0 29-13 29-29 0-17-13-30-29-30s-29 13-29 30c0 16 13 29 29 29z m192-192c-28-27-65-43-104-43-39 0-76 16-104 43-11 12-11 30 0 42 12 11 30 11 42 0 33-33 91-33 124 0 12 11 30 11 42 0 11-12 11-30 0-42z m-16 133c-16 0-29 13-29 30 0 16 13 29 29 29s29-13 29-29c0-17-13-30-29-30z m324 352h-824c-49 0-88-40-88-88v-586c0-48 39-88 88-88h90v-147c0-26 31-39 50-20l167 167h517c49 0 88 40 88 88v586c0 48-39 88-88 88z m-412-645c-145 0-264 119-264 264s119 264 264 264 264-119 264-264-119-264-264-264z" horiz-adv-x="1000" />

<glyph glyph-name="ic_chat_group_2" unicode="&#xe871;" d="M960 286c0 0-10 14-34 23 0 0-2 1-5 2-22 10-42 17-42 17-5 1-8 3-12 4-14 7-25 16-25 16s0 0-11 11c20 21 35 49 39 76 4 4 7 10 9 19 3 11 7 29 0 38 0 0-1 1-1 1 6 22 14 68-14 99-2 3-17 21-50 31l-16 5c-26 8-42 10-43 10-1 0-2 0-3 0-1 0-4-1-6-1-7 1-16-2-17-3-3-1-53-21-68-67-1-4-7-24 1-72-1-1-2-2-3-3-7-9-3-27 0-38 1-9 5-15 8-18 4-27 17-53 34-73 0 0 13-22 15-24 40-60 45-176 46-190l0 0 0-1c-1-41-21-55-32-60-5-2-11-4-16-6 3 4 5 11 6 23 0 0-4 171-39 222 0 0-10 13-33 22 0 0-2 1-5 2-21 9-40 15-40 15-4 2-8 3-11 5-14 7-25 15-25 15s0 0-10 11c19 20 33 47 38 73 3 4 6 9 8 18 3 11 6 28 0 36 0 1-1 1-1 2 6 21 13 65-13 95-2 3-17 20-49 29l-15 6c-25 7-40 9-41 9-1 0-2 0-3 0-1-1-4-1-6-1-6 1-15-2-17-3-2-1-50-20-64-65-2-3-7-22 0-69-1-1-2-2-3-3-6-8-2-26 0-36 2-9 5-14 9-18 3-26 16-50 32-69l-5-7 0 0 0-1c0 0 0 0 0 1v0l0-1c-6-20-85-44-85-44-23-9-33-22-33-22-34-51-38-222-38-222 0-12 3-19 5-23-5 2-10 4-15 6-11 5-31 19-32 60v1 0c0 14 6 130 46 189 2 3 9 12 22 21 0 0 0 0 0 0 20 21 35 49 40 76 3 4 7 10 8 19 3 11 7 29 0 38 0 0 0 1-1 1 6 22 14 68-13 99-3 3-18 21-51 31l-15 5c-26 8-42 10-43 10-1 0-2 0-4 0 0 0-4-1-6-1-6 1-15-2-17-3-2-1-52-21-67-67-2-4-8-24 0-72-1-1-2-2-3-3-6-9-3-27 0-38 2-9 5-15 9-19 4-26 17-52 34-72l-5-7 0 0-1-1c1 0 1 1 1 1v0l-1-1c-6-21-88-46-88-46-24-9-34-23-34-23-36-53-40-171-40-171 0-27 12-30 12-30 82-36 211-43 211-43 7 0 14 1 20 1l0-1c0 0 49 3 105 13 68-16 138-20 138-20 6 0 12 0 19 1l0-1c0 0 72 4 141 21 59-11 111-14 111-14 7 0 13 1 20 1l0-1c0 0 129 7 211 43 0 0 12 3 12 30 0 0-4 118-40 171z" horiz-adv-x="1000" />

<glyph glyph-name="ic_camera" unicode="&#xe873;" d="M0 507v-441c0-67 55-122 122-122h756c67 0 122 55 122 122v441c0 65-52 117-116 117h-163l-3 17c-16 68-76 115-146 115h-144c-70 0-130-47-146-115l-4-17h-162c-64 0-116-53-116-117z m298 67c12 0 22 8 25 19l8 36c11 45 50 77 97 77h144c47 0 86-32 97-77l8-36c3-11 13-19 24-19h183c36 0 66-30 66-67v-441c0-40-32-72-72-72h-756c-40 0-72 32-72 72v441c0 37 30 67 66 67h182z m202-501c116 0 210 94 210 210s-94 210-210 210-210-94-210-210 94-210 210-210z m0 370c88 0 160-72 160-160s-72-160-160-160-160 71-160 160 72 160 160 160z" horiz-adv-x="1000" />

<glyph glyph-name="ic_emoji" unicode="&#xe874;" d="M500 850c-276 0-500-224-500-500s224-500 500-500 500 224 500 500-224 500-500 500z m0-946c-122 0-234 50-314 130-32 32-60 69-81 109-33 62-51 133-51 207 0 246 200 446 446 446 117 0 223-45 303-119 41-38 75-84 99-135 28-58 44-123 44-192 0-246-200-446-446-446z m-1 169c105 0 205 54 262 142l-45 30c-53-82-149-127-246-116-75 8-144 52-186 116l-45-30c50-77 134-129 225-140 12-1 23-2 35-2z" horiz-adv-x="1000" />

<glyph glyph-name="ic_emoji_2" unicode="&#xe875;" d="M500 850c-276 0-500-224-500-500s224-500 500-500 500 224 500 500-224 500-500 500z m0-957c-252 0-456 205-456 457s204 457 456 457 457-205 457-457-205-457-457-457z m-109 544c0 36-29 65-65 65s-65-29-65-65 29-65 65-65 65 29 65 65z m-87 0c0 12 10 22 22 22s22-10 22-22-10-22-22-22-22 10-22 22z m370 65c-36 0-65-29-65-65s29-65 65-65 65 29 65 65-29 65-65 65z m0-87c-12 0-22 10-22 22s10 22 22 22c12 0 22-10 22-22s-10-22-22-22z m36-179c-9 8-23 7-30-2-46-51-111-80-180-80-69 0-134 29-179 80-8 9-22 10-31 2-9-8-10-22-2-31 54-60 131-94 212-94 81 0 158 34 212 94 8 9 7 23-2 31z" horiz-adv-x="1000" />

<glyph glyph-name="ic_history" unicode="&#xe876;" d="M500 850c-276 0-500-224-500-500 0-276 224-500 500-500 276 0 500 224 500 500 0 276-224 500-500 500z m0-932c-238 0-431 194-431 432 0 238 193 432 431 432 238 0 432-194 432-432 0-238-194-432-432-432z m258 439h-237v259c0 19-16 34-35 34-19 0-34-15-34-34v-293c0-19 15-35 34-35h272c19 0 34 16 34 35 0 18-15 34-34 34z" horiz-adv-x="1000" />

<glyph glyph-name="ic_remove" unicode="&#xe89c;" d="M500 850c-276 0-500-224-500-500s224-500 500-500c276 0 500 224 500 500s-224 500-500 500z m0-934c-240 0-434 195-434 434 0 240 194 434 434 434 240 0 434-194 434-434 0-239-194-434-434-434z m164 598c-13 13-34 13-47 0l-117-118-117 118c-13 13-34 13-47 0-12-13-12-34 0-47l118-117-118-117c-12-13-12-34 0-47 7-6 15-9 24-9s16 3 23 9l117 118 117-118c7-6 15-9 24-9 8 0 16 3 23 9 13 13 13 34 0 47l-118 117 118 117c13 13 13 34 0 47z" horiz-adv-x="1000" />

<glyph glyph-name="ic_search" unicode="&#xe89d;" d="M976-118l-280 292c71 72 116 170 116 280 0 218-178 396-397 396s-396-178-396-396 177-397 396-397c96 0 184 34 253 91l281-292c4-4 9-6 14-6 4 0 9 2 13 5 7 7 7 19 0 27z m-561 213c-198 0-359 161-359 359s161 358 359 358 359-161 359-358-161-359-359-359z" horiz-adv-x="1000" />

<glyph glyph-name="menu-1" unicode="&#xf008;" d="M68 62q0-30 21-51t51-21h793q30 0 51 21t21 51-21 51-51 21h-793q-29 0-51-21t-21-51z m0 288q0-30 21-51t51-21h793q30 0 51 21t21 51-21 51-51 21h-793q-29 0-51-21t-21-51z m0 288q0-30 21-51t51-21h793q30 0 51 21t21 51-21 51-51 21h-793q-29 0-51-21t-21-51z" horiz-adv-x="1073.2" />

<glyph glyph-name="bookmark-empty" unicode="&#xf097;" d="M643 707h-572v-693l237 227 49 47 50-47 236-227v693z m7 72q12 0 24-5 19-8 29-23t11-35v-719q0-19-11-35t-29-23q-10-4-24-4-27 0-47 18l-246 236-246-236q-20-19-46-19-13 0-25 5-18 7-29 23t-11 35v719q0 19 11 35t29 23q12 5 25 5h585z" horiz-adv-x="714.3" />

<glyph glyph-name="sort-down" unicode="&#xf0dd;" d="M571 243q0-15-10-25l-250-250q-11-11-25-11t-25 11l-250 250q-11 10-11 25t11 25 25 11h500q14 0 25-11t10-25z" horiz-adv-x="571.4" />

<glyph glyph-name="trash" unicode="&#xf1f8;" d="M286 82v393q0 8-5 13t-13 5h-36q-8 0-13-5t-5-13v-393q0-8 5-13t13-5h36q8 0 13 5t5 13z m143 0v393q0 8-5 13t-13 5h-36q-8 0-13-5t-5-13v-393q0-8 5-13t13-5h36q8 0 13 5t5 13z m142 0v393q0 8-5 13t-12 5h-36q-8 0-13-5t-5-13v-393q0-8 5-13t13-5h36q7 0 12 5t5 13z m-303 554h250l-27 65q-4 5-9 6h-177q-6-1-10-6z m518-18v-36q0-8-5-13t-13-5h-54v-529q0-46-26-80t-63-34h-464q-37 0-63 33t-27 79v531h-53q-8 0-13 5t-5 13v36q0 8 5 13t13 5h172l39 93q9 21 31 35t44 15h178q23 0 44-15t30-35l39-93h173q8 0 13-5t5-13z" horiz-adv-x="785.7" />
</font>
</defs>
</svg>
